<?xml version="1.0" encoding="UTF-8" standalone="no"?>
<!DOCTYPE svg PUBLIC "-//W3C//DTD SVG 1.1//EN"
 "http://www.w3.org/Graphics/SVG/1.1/DTD/svg11.dtd">
<!-- Generated by graphviz version 2.38.0 (20140413.2041)
 -->
<!-- Title: Tree Pages: 1 -->
<svg width="2205pt" height="581pt"
 viewBox="0.00 0.00 2205.00 581.00" xmlns="http://www.w3.org/2000/svg" xmlns:xlink="http://www.w3.org/1999/xlink">
<g id="graph0" class="graph" transform="scale(1 1) rotate(0) translate(4 577)">
<title>Tree</title>
<polygon fill="white" stroke="none" points="-4,4 -4,-577 2201,-577 2201,4 -4,4"/>
<!-- 0 -->
<g id="node1" class="node"><title>0</title>
<polygon fill="none" stroke="black" points="823.5,-573 668.5,-573 668.5,-505 823.5,-505 823.5,-573"/>
<text text-anchor="middle" x="746" y="-557.8" font-family="Helvetica,sans-Serif" font-size="14.00">SSLfinal_State &lt;= 0.5</text>
<text text-anchor="middle" x="746" y="-542.8" font-family="Helvetica,sans-Serif" font-size="14.00">gini = 0.494</text>
<text text-anchor="middle" x="746" y="-527.8" font-family="Helvetica,sans-Serif" font-size="14.00">samples = 8844</text>
<text text-anchor="middle" x="746" y="-512.8" font-family="Helvetica,sans-Serif" font-size="14.00">value = [3942, 4902]</text>
</g>
<!-- 1 -->
<g id="node2" class="node"><title>1</title>
<polygon fill="none" stroke="black" points="658,-469 490,-469 490,-401 658,-401 658,-469"/>
<text text-anchor="middle" x="574" y="-453.8" font-family="Helvetica,sans-Serif" font-size="14.00">URL_of_Anchor &lt;= &#45;0.5</text>
<text text-anchor="middle" x="574" y="-438.8" font-family="Helvetica,sans-Serif" font-size="14.00">gini = 0.201</text>
<text text-anchor="middle" x="574" y="-423.8" font-family="Helvetica,sans-Serif" font-size="14.00">samples = 3815</text>
<text text-anchor="middle" x="574" y="-408.8" font-family="Helvetica,sans-Serif" font-size="14.00">value = [3382, 433]</text>
</g>
<!-- 0&#45;&gt;1 -->
<g id="edge1" class="edge"><title>0&#45;&gt;1</title>
<path fill="none" stroke="black" d="M690.157,-504.884C673.701,-495.125 655.559,-484.366 638.602,-474.31"/>
<polygon fill="black" stroke="black" points="640.244,-471.215 629.857,-469.125 636.673,-477.236 640.244,-471.215"/>
<text text-anchor="middle" x="636.046" y="-489.647" font-family="Helvetica,sans-Serif" font-size="14.00">True</text>
</g>
<!-- 14 -->
<g id="node15" class="node"><title>14</title>
<polygon fill="none" stroke="black" points="1003,-469 835,-469 835,-401 1003,-401 1003,-469"/>
<text text-anchor="middle" x="919" y="-453.8" font-family="Helvetica,sans-Serif" font-size="14.00">URL_of_Anchor &lt;= &#45;0.5</text>
<text text-anchor="middle" x="919" y="-438.8" font-family="Helvetica,sans-Serif" font-size="14.00">gini = 0.198</text>
<text text-anchor="middle" x="919" y="-423.8" font-family="Helvetica,sans-Serif" font-size="14.00">samples = 5029</text>
<text text-anchor="middle" x="919" y="-408.8" font-family="Helvetica,sans-Serif" font-size="14.00">value = [560, 4469]</text>
</g>
<!-- 0&#45;&gt;14 -->
<g id="edge14" class="edge"><title>0&#45;&gt;14</title>
<path fill="none" stroke="black" d="M802.168,-504.884C818.719,-495.125 836.967,-484.366 854.023,-474.31"/>
<polygon fill="black" stroke="black" points="855.981,-477.219 862.818,-469.125 852.426,-471.189 855.981,-477.219"/>
<text text-anchor="middle" x="856.568" y="-489.631" font-family="Helvetica,sans-Serif" font-size="14.00">False</text>
</g>
<!-- 2 -->
<g id="node3" class="node"><title>2</title>
<polygon fill="none" stroke="black" points="480,-357.5 358,-357.5 358,-304.5 480,-304.5 480,-357.5"/>
<text text-anchor="middle" x="419" y="-342.3" font-family="Helvetica,sans-Serif" font-size="14.00">gini = 0.0</text>
<text text-anchor="middle" x="419" y="-327.3" font-family="Helvetica,sans-Serif" font-size="14.00">samples = 2434</text>
<text text-anchor="middle" x="419" y="-312.3" font-family="Helvetica,sans-Serif" font-size="14.00">value = [2434, 0]</text>
</g>
<!-- 1&#45;&gt;2 -->
<g id="edge2" class="edge"><title>1&#45;&gt;2</title>
<path fill="none" stroke="black" d="M523.676,-400.884C505.292,-388.786 484.573,-375.151 466.448,-363.224"/>
<polygon fill="black" stroke="black" points="468.058,-360.093 457.78,-357.52 464.21,-365.941 468.058,-360.093"/>
</g>
<!-- 3 -->
<g id="node4" class="node"><title>3</title>
<polygon fill="none" stroke="black" points="650,-365 498,-365 498,-297 650,-297 650,-365"/>
<text text-anchor="middle" x="574" y="-349.8" font-family="Helvetica,sans-Serif" font-size="14.00">Links_in_tags &lt;= &#45;0.5</text>
<text text-anchor="middle" x="574" y="-334.8" font-family="Helvetica,sans-Serif" font-size="14.00">gini = 0.43</text>
<text text-anchor="middle" x="574" y="-319.8" font-family="Helvetica,sans-Serif" font-size="14.00">samples = 1381</text>
<text text-anchor="middle" x="574" y="-304.8" font-family="Helvetica,sans-Serif" font-size="14.00">value = [948, 433]</text>
</g>
<!-- 1&#45;&gt;3 -->
<g id="edge3" class="edge"><title>1&#45;&gt;3</title>
<path fill="none" stroke="black" d="M574,-400.884C574,-392.778 574,-383.982 574,-375.472"/>
<polygon fill="black" stroke="black" points="577.5,-375.299 574,-365.299 570.5,-375.299 577.5,-375.299"/>
</g>
<!-- 4 -->
<g id="node5" class="node"><title>4</title>
<polygon fill="none" stroke="black" points="388,-261 246,-261 246,-193 388,-193 388,-261"/>
<text text-anchor="middle" x="317" y="-245.8" font-family="Helvetica,sans-Serif" font-size="14.00">Prefix_Suffix &lt;= 0.0</text>
<text text-anchor="middle" x="317" y="-230.8" font-family="Helvetica,sans-Serif" font-size="14.00">gini = 0.236</text>
<text text-anchor="middle" x="317" y="-215.8" font-family="Helvetica,sans-Serif" font-size="14.00">samples = 708</text>
<text text-anchor="middle" x="317" y="-200.8" font-family="Helvetica,sans-Serif" font-size="14.00">value = [611, 97]</text>
</g>
<!-- 3&#45;&gt;4 -->
<g id="edge4" class="edge"><title>3&#45;&gt;4</title>
<path fill="none" stroke="black" d="M497.935,-299.811C466.276,-287.246 429.493,-272.647 397.391,-259.906"/>
<polygon fill="black" stroke="black" points="398.617,-256.627 388.031,-256.191 396.035,-263.134 398.617,-256.627"/>
</g>
<!-- 9 -->
<g id="node10" class="node"><title>9</title>
<polygon fill="none" stroke="black" points="645,-261 503,-261 503,-193 645,-193 645,-261"/>
<text text-anchor="middle" x="574" y="-245.8" font-family="Helvetica,sans-Serif" font-size="14.00">Prefix_Suffix &lt;= 0.0</text>
<text text-anchor="middle" x="574" y="-230.8" font-family="Helvetica,sans-Serif" font-size="14.00">gini = 0.5</text>
<text text-anchor="middle" x="574" y="-215.8" font-family="Helvetica,sans-Serif" font-size="14.00">samples = 673</text>
<text text-anchor="middle" x="574" y="-200.8" font-family="Helvetica,sans-Serif" font-size="14.00">value = [337, 336]</text>
</g>
<!-- 3&#45;&gt;9 -->
<g id="edge9" class="edge"><title>3&#45;&gt;9</title>
<path fill="none" stroke="black" d="M574,-296.884C574,-288.778 574,-279.982 574,-271.472"/>
<polygon fill="black" stroke="black" points="577.5,-271.299 574,-261.299 570.5,-271.299 577.5,-271.299"/>
</g>
<!-- 5 -->
<g id="node6" class="node"><title>5</title>
<polygon fill="none" stroke="black" points="246.5,-157 115.5,-157 115.5,-89 246.5,-89 246.5,-157"/>
<text text-anchor="middle" x="181" y="-141.8" font-family="Helvetica,sans-Serif" font-size="14.00">web_traffic &lt;= 0.5</text>
<text text-anchor="middle" x="181" y="-126.8" font-family="Helvetica,sans-Serif" font-size="14.00">gini = 0.207</text>
<text text-anchor="middle" x="181" y="-111.8" font-family="Helvetica,sans-Serif" font-size="14.00">samples = 692</text>
<text text-anchor="middle" x="181" y="-96.8" font-family="Helvetica,sans-Serif" font-size="14.00">value = [611, 81]</text>
</g>
<!-- 4&#45;&gt;5 -->
<g id="edge5" class="edge"><title>4&#45;&gt;5</title>
<path fill="none" stroke="black" d="M272.845,-192.884C260.374,-183.531 246.679,-173.259 233.758,-163.568"/>
<polygon fill="black" stroke="black" points="235.499,-160.499 225.399,-157.299 231.299,-166.099 235.499,-160.499"/>
</g>
<!-- 8 -->
<g id="node9" class="node"><title>8</title>
<polygon fill="none" stroke="black" points="369.5,-149.5 264.5,-149.5 264.5,-96.5 369.5,-96.5 369.5,-149.5"/>
<text text-anchor="middle" x="317" y="-134.3" font-family="Helvetica,sans-Serif" font-size="14.00">gini = 0.0</text>
<text text-anchor="middle" x="317" y="-119.3" font-family="Helvetica,sans-Serif" font-size="14.00">samples = 16</text>
<text text-anchor="middle" x="317" y="-104.3" font-family="Helvetica,sans-Serif" font-size="14.00">value = [0, 16]</text>
</g>
<!-- 4&#45;&gt;8 -->
<g id="edge8" class="edge"><title>4&#45;&gt;8</title>
<path fill="none" stroke="black" d="M317,-192.884C317,-182.326 317,-170.597 317,-159.854"/>
<polygon fill="black" stroke="black" points="320.5,-159.52 317,-149.52 313.5,-159.52 320.5,-159.52"/>
</g>
<!-- 6 -->
<g id="node7" class="node"><title>6</title>
<polygon fill="none" stroke="black" points="122,-53 7.10543e-015,-53 7.10543e-015,-0 122,-0 122,-53"/>
<text text-anchor="middle" x="61" y="-37.8" font-family="Helvetica,sans-Serif" font-size="14.00">gini = 0.128</text>
<text text-anchor="middle" x="61" y="-22.8" font-family="Helvetica,sans-Serif" font-size="14.00">samples = 364</text>
<text text-anchor="middle" x="61" y="-7.8" font-family="Helvetica,sans-Serif" font-size="14.00">value = [339, 25]</text>
</g>
<!-- 5&#45;&gt;6 -->
<g id="edge6" class="edge"><title>5&#45;&gt;6</title>
<path fill="none" stroke="black" d="M139.03,-88.9485C126.949,-79.4346 113.792,-69.074 101.784,-59.6175"/>
<polygon fill="black" stroke="black" points="103.703,-56.6739 93.6815,-53.2367 99.3725,-62.1734 103.703,-56.6739"/>
</g>
<!-- 7 -->
<g id="node8" class="node"><title>7</title>
<polygon fill="none" stroke="black" points="262,-53 140,-53 140,-0 262,-0 262,-53"/>
<text text-anchor="middle" x="201" y="-37.8" font-family="Helvetica,sans-Serif" font-size="14.00">gini = 0.283</text>
<text text-anchor="middle" x="201" y="-22.8" font-family="Helvetica,sans-Serif" font-size="14.00">samples = 328</text>
<text text-anchor="middle" x="201" y="-7.8" font-family="Helvetica,sans-Serif" font-size="14.00">value = [272, 56]</text>
</g>
<!-- 5&#45;&gt;7 -->
<g id="edge7" class="edge"><title>5&#45;&gt;7</title>
<path fill="none" stroke="black" d="M187.995,-88.9485C189.757,-80.6238 191.656,-71.6509 193.444,-63.2027"/>
<polygon fill="black" stroke="black" points="196.907,-63.7447 195.553,-53.2367 190.058,-62.2953 196.907,-63.7447"/>
</g>
<!-- 10 -->
<g id="node11" class="node"><title>10</title>
<polygon fill="none" stroke="black" points="540,-157 388,-157 388,-89 540,-89 540,-157"/>
<text text-anchor="middle" x="464" y="-141.8" font-family="Helvetica,sans-Serif" font-size="14.00">Request_URL &lt;= 0.0</text>
<text text-anchor="middle" x="464" y="-126.8" font-family="Helvetica,sans-Serif" font-size="14.00">gini = 0.494</text>
<text text-anchor="middle" x="464" y="-111.8" font-family="Helvetica,sans-Serif" font-size="14.00">samples = 607</text>
<text text-anchor="middle" x="464" y="-96.8" font-family="Helvetica,sans-Serif" font-size="14.00">value = [337, 270]</text>
</g>
<!-- 9&#45;&gt;10 -->
<g id="edge10" class="edge"><title>9&#45;&gt;10</title>
<path fill="none" stroke="black" d="M538.286,-192.884C528.392,-183.709 517.544,-173.65 507.27,-164.123"/>
<polygon fill="black" stroke="black" points="509.624,-161.532 499.911,-157.299 504.864,-166.665 509.624,-161.532"/>
</g>
<!-- 13 -->
<g id="node14" class="node"><title>13</title>
<polygon fill="none" stroke="black" points="663.5,-149.5 558.5,-149.5 558.5,-96.5 663.5,-96.5 663.5,-149.5"/>
<text text-anchor="middle" x="611" y="-134.3" font-family="Helvetica,sans-Serif" font-size="14.00">gini = 0.0</text>
<text text-anchor="middle" x="611" y="-119.3" font-family="Helvetica,sans-Serif" font-size="14.00">samples = 66</text>
<text text-anchor="middle" x="611" y="-104.3" font-family="Helvetica,sans-Serif" font-size="14.00">value = [0, 66]</text>
</g>
<!-- 9&#45;&gt;13 -->
<g id="edge13" class="edge"><title>9&#45;&gt;13</title>
<path fill="none" stroke="black" d="M586.013,-192.884C589.922,-182.106 594.275,-170.108 598.237,-159.184"/>
<polygon fill="black" stroke="black" points="601.623,-160.114 601.743,-149.52 595.042,-157.727 601.623,-160.114"/>
</g>
<!-- 11 -->
<g id="node12" class="node"><title>11</title>
<polygon fill="none" stroke="black" points="442,-53 320,-53 320,-0 442,-0 442,-53"/>
<text text-anchor="middle" x="381" y="-37.8" font-family="Helvetica,sans-Serif" font-size="14.00">gini = 0.373</text>
<text text-anchor="middle" x="381" y="-22.8" font-family="Helvetica,sans-Serif" font-size="14.00">samples = 226</text>
<text text-anchor="middle" x="381" y="-7.8" font-family="Helvetica,sans-Serif" font-size="14.00">value = [170, 56]</text>
</g>
<!-- 10&#45;&gt;11 -->
<g id="edge11" class="edge"><title>10&#45;&gt;11</title>
<path fill="none" stroke="black" d="M434.971,-88.9485C427.016,-79.892 418.388,-70.0682 410.412,-60.9875"/>
<polygon fill="black" stroke="black" points="412.834,-58.4405 403.605,-53.2367 407.574,-63.0599 412.834,-58.4405"/>
</g>
<!-- 12 -->
<g id="node13" class="node"><title>12</title>
<polygon fill="none" stroke="black" points="590,-53 460,-53 460,-0 590,-0 590,-53"/>
<text text-anchor="middle" x="525" y="-37.8" font-family="Helvetica,sans-Serif" font-size="14.00">gini = 0.492</text>
<text text-anchor="middle" x="525" y="-22.8" font-family="Helvetica,sans-Serif" font-size="14.00">samples = 381</text>
<text text-anchor="middle" x="525" y="-7.8" font-family="Helvetica,sans-Serif" font-size="14.00">value = [167, 214]</text>
</g>
<!-- 10&#45;&gt;12 -->
<g id="edge12" class="edge"><title>10&#45;&gt;12</title>
<path fill="none" stroke="black" d="M485.335,-88.9485C491.004,-80.1664 497.138,-70.6629 502.85,-61.815"/>
<polygon fill="black" stroke="black" points="505.904,-63.5365 508.387,-53.2367 500.023,-59.7402 505.904,-63.5365"/>
</g>
<!-- 15 -->
<g id="node16" class="node"><title>15</title>
<polygon fill="none" stroke="black" points="990,-365 848,-365 848,-297 990,-297 990,-365"/>
<text text-anchor="middle" x="919" y="-349.8" font-family="Helvetica,sans-Serif" font-size="14.00">Prefix_Suffix &lt;= 0.0</text>
<text text-anchor="middle" x="919" y="-334.8" font-family="Helvetica,sans-Serif" font-size="14.00">gini = 0.235</text>
<text text-anchor="middle" x="919" y="-319.8" font-family="Helvetica,sans-Serif" font-size="14.00">samples = 206</text>
<text text-anchor="middle" x="919" y="-304.8" font-family="Helvetica,sans-Serif" font-size="14.00">value = [178, 28]</text>
</g>
<!-- 14&#45;&gt;15 -->
<g id="edge15" class="edge"><title>14&#45;&gt;15</title>
<path fill="none" stroke="black" d="M919,-400.884C919,-392.778 919,-383.982 919,-375.472"/>
<polygon fill="black" stroke="black" points="922.5,-375.299 919,-365.299 915.5,-375.299 922.5,-375.299"/>
</g>
<!-- 24 -->
<g id="node25" class="node"><title>24</title>
<polygon fill="none" stroke="black" points="1439,-365 1301,-365 1301,-297 1439,-297 1439,-365"/>
<text text-anchor="middle" x="1370" y="-349.8" font-family="Helvetica,sans-Serif" font-size="14.00">web_traffic &lt;= 0.5</text>
<text text-anchor="middle" x="1370" y="-334.8" font-family="Helvetica,sans-Serif" font-size="14.00">gini = 0.146</text>
<text text-anchor="middle" x="1370" y="-319.8" font-family="Helvetica,sans-Serif" font-size="14.00">samples = 4823</text>
<text text-anchor="middle" x="1370" y="-304.8" font-family="Helvetica,sans-Serif" font-size="14.00">value = [382, 4441]</text>
</g>
<!-- 14&#45;&gt;24 -->
<g id="edge24" class="edge"><title>14&#45;&gt;24</title>
<path fill="none" stroke="black" d="M1003.04,-414.994C1085.4,-396.367 1209.99,-368.188 1290.69,-349.938"/>
<polygon fill="black" stroke="black" points="1291.81,-353.272 1300.79,-347.652 1290.27,-346.444 1291.81,-353.272"/>
</g>
<!-- 16 -->
<g id="node17" class="node"><title>16</title>
<polygon fill="none" stroke="black" points="938.5,-261 721.5,-261 721.5,-193 938.5,-193 938.5,-261"/>
<text text-anchor="middle" x="830" y="-245.8" font-family="Helvetica,sans-Serif" font-size="14.00">Links_pointing_to_page &lt;= &#45;0.5</text>
<text text-anchor="middle" x="830" y="-230.8" font-family="Helvetica,sans-Serif" font-size="14.00">gini = 0.127</text>
<text text-anchor="middle" x="830" y="-215.8" font-family="Helvetica,sans-Serif" font-size="14.00">samples = 191</text>
<text text-anchor="middle" x="830" y="-200.8" font-family="Helvetica,sans-Serif" font-size="14.00">value = [178, 13]</text>
</g>
<!-- 15&#45;&gt;16 -->
<g id="edge16" class="edge"><title>15&#45;&gt;16</title>
<path fill="none" stroke="black" d="M890.104,-296.884C882.332,-287.976 873.833,-278.235 865.737,-268.957"/>
<polygon fill="black" stroke="black" points="868.267,-266.533 859.055,-261.299 862.993,-271.135 868.267,-266.533"/>
</g>
<!-- 23 -->
<g id="node24" class="node"><title>23</title>
<polygon fill="none" stroke="black" points="1061.5,-253.5 956.5,-253.5 956.5,-200.5 1061.5,-200.5 1061.5,-253.5"/>
<text text-anchor="middle" x="1009" y="-238.3" font-family="Helvetica,sans-Serif" font-size="14.00">gini = 0.0</text>
<text text-anchor="middle" x="1009" y="-223.3" font-family="Helvetica,sans-Serif" font-size="14.00">samples = 15</text>
<text text-anchor="middle" x="1009" y="-208.3" font-family="Helvetica,sans-Serif" font-size="14.00">value = [0, 15]</text>
</g>
<!-- 15&#45;&gt;23 -->
<g id="edge23" class="edge"><title>15&#45;&gt;23</title>
<path fill="none" stroke="black" d="M948.22,-296.884C958.313,-285.446 969.617,-272.634 979.715,-261.19"/>
<polygon fill="black" stroke="black" points="982.491,-263.334 986.482,-253.52 977.242,-258.703 982.491,-263.334"/>
</g>
<!-- 17 -->
<g id="node18" class="node"><title>17</title>
<polygon fill="none" stroke="black" points="902.5,-157 681.5,-157 681.5,-89 902.5,-89 902.5,-157"/>
<text text-anchor="middle" x="792" y="-141.8" font-family="Helvetica,sans-Serif" font-size="14.00">double_slash_redirecting &lt;= 0.0</text>
<text text-anchor="middle" x="792" y="-126.8" font-family="Helvetica,sans-Serif" font-size="14.00">gini = 0.346</text>
<text text-anchor="middle" x="792" y="-111.8" font-family="Helvetica,sans-Serif" font-size="14.00">samples = 9</text>
<text text-anchor="middle" x="792" y="-96.8" font-family="Helvetica,sans-Serif" font-size="14.00">value = [2, 7]</text>
</g>
<!-- 16&#45;&gt;17 -->
<g id="edge17" class="edge"><title>16&#45;&gt;17</title>
<path fill="none" stroke="black" d="M817.662,-192.884C814.576,-184.6 811.222,-175.595 807.987,-166.911"/>
<polygon fill="black" stroke="black" points="811.177,-165.448 804.406,-157.299 804.617,-167.892 811.177,-165.448"/>
</g>
<!-- 20 -->
<g id="node21" class="node"><title>20</title>
<polygon fill="none" stroke="black" points="1033.5,-157 920.5,-157 920.5,-89 1033.5,-89 1033.5,-157"/>
<text text-anchor="middle" x="977" y="-141.8" font-family="Helvetica,sans-Serif" font-size="14.00">port &lt;= 0.0</text>
<text text-anchor="middle" x="977" y="-126.8" font-family="Helvetica,sans-Serif" font-size="14.00">gini = 0.064</text>
<text text-anchor="middle" x="977" y="-111.8" font-family="Helvetica,sans-Serif" font-size="14.00">samples = 182</text>
<text text-anchor="middle" x="977" y="-96.8" font-family="Helvetica,sans-Serif" font-size="14.00">value = [176, 6]</text>
</g>
<!-- 16&#45;&gt;20 -->
<g id="edge20" class="edge"><title>16&#45;&gt;20</title>
<path fill="none" stroke="black" d="M877.727,-192.884C891.532,-183.304 906.727,-172.761 920.989,-162.864"/>
<polygon fill="black" stroke="black" points="923.041,-165.701 929.261,-157.125 919.05,-159.95 923.041,-165.701"/>
</g>
<!-- 18 -->
<g id="node19" class="node"><title>18</title>
<polygon fill="none" stroke="black" points="725.5,-53 628.5,-53 628.5,-0 725.5,-0 725.5,-53"/>
<text text-anchor="middle" x="677" y="-37.8" font-family="Helvetica,sans-Serif" font-size="14.00">gini = 0.0</text>
<text text-anchor="middle" x="677" y="-22.8" font-family="Helvetica,sans-Serif" font-size="14.00">samples = 2</text>
<text text-anchor="middle" x="677" y="-7.8" font-family="Helvetica,sans-Serif" font-size="14.00">value = [2, 0]</text>
</g>
<!-- 17&#45;&gt;18 -->
<g id="edge18" class="edge"><title>17&#45;&gt;18</title>
<path fill="none" stroke="black" d="M751.779,-88.9485C740.201,-79.4346 727.593,-69.074 716.085,-59.6175"/>
<polygon fill="black" stroke="black" points="718.268,-56.8814 708.32,-53.2367 713.824,-62.2897 718.268,-56.8814"/>
</g>
<!-- 19 -->
<g id="node20" class="node"><title>19</title>
<polygon fill="none" stroke="black" points="840.5,-53 743.5,-53 743.5,-0 840.5,-0 840.5,-53"/>
<text text-anchor="middle" x="792" y="-37.8" font-family="Helvetica,sans-Serif" font-size="14.00">gini = 0.0</text>
<text text-anchor="middle" x="792" y="-22.8" font-family="Helvetica,sans-Serif" font-size="14.00">samples = 7</text>
<text text-anchor="middle" x="792" y="-7.8" font-family="Helvetica,sans-Serif" font-size="14.00">value = [0, 7]</text>
</g>
<!-- 17&#45;&gt;19 -->
<g id="edge19" class="edge"><title>17&#45;&gt;19</title>
<path fill="none" stroke="black" d="M792,-88.9485C792,-80.7153 792,-71.848 792,-63.4814"/>
<polygon fill="black" stroke="black" points="795.5,-63.2367 792,-53.2367 788.5,-63.2367 795.5,-63.2367"/>
</g>
<!-- 21 -->
<g id="node22" class="node"><title>21</title>
<polygon fill="none" stroke="black" points="963.5,-53 858.5,-53 858.5,-0 963.5,-0 963.5,-53"/>
<text text-anchor="middle" x="911" y="-37.8" font-family="Helvetica,sans-Serif" font-size="14.00">gini = 0.386</text>
<text text-anchor="middle" x="911" y="-22.8" font-family="Helvetica,sans-Serif" font-size="14.00">samples = 23</text>
<text text-anchor="middle" x="911" y="-7.8" font-family="Helvetica,sans-Serif" font-size="14.00">value = [17, 6]</text>
</g>
<!-- 20&#45;&gt;21 -->
<g id="edge21" class="edge"><title>20&#45;&gt;21</title>
<path fill="none" stroke="black" d="M953.916,-88.9485C947.719,-80.0749 941.007,-70.4648 934.773,-61.5388"/>
<polygon fill="black" stroke="black" points="937.57,-59.4311 928.975,-53.2367 931.831,-63.4392 937.57,-59.4311"/>
</g>
<!-- 22 -->
<g id="node23" class="node"><title>22</title>
<polygon fill="none" stroke="black" points="1094.5,-53 981.5,-53 981.5,-0 1094.5,-0 1094.5,-53"/>
<text text-anchor="middle" x="1038" y="-37.8" font-family="Helvetica,sans-Serif" font-size="14.00">gini = 0.0</text>
<text text-anchor="middle" x="1038" y="-22.8" font-family="Helvetica,sans-Serif" font-size="14.00">samples = 159</text>
<text text-anchor="middle" x="1038" y="-7.8" font-family="Helvetica,sans-Serif" font-size="14.00">value = [159, 0]</text>
</g>
<!-- 20&#45;&gt;22 -->
<g id="edge22" class="edge"><title>20&#45;&gt;22</title>
<path fill="none" stroke="black" d="M998.335,-88.9485C1004,-80.1664 1010.14,-70.6629 1015.85,-61.815"/>
<polygon fill="black" stroke="black" points="1018.9,-63.5365 1021.39,-53.2367 1013.02,-59.7402 1018.9,-63.5365"/>
</g>
<!-- 25 -->
<g id="node26" class="node"><title>25</title>
<polygon fill="none" stroke="black" points="1439,-261 1301,-261 1301,-193 1439,-193 1439,-261"/>
<text text-anchor="middle" x="1370" y="-245.8" font-family="Helvetica,sans-Serif" font-size="14.00">web_traffic &lt;= &#45;0.5</text>
<text text-anchor="middle" x="1370" y="-230.8" font-family="Helvetica,sans-Serif" font-size="14.00">gini = 0.276</text>
<text text-anchor="middle" x="1370" y="-215.8" font-family="Helvetica,sans-Serif" font-size="14.00">samples = 1593</text>
<text text-anchor="middle" x="1370" y="-200.8" font-family="Helvetica,sans-Serif" font-size="14.00">value = [263, 1330]</text>
</g>
<!-- 24&#45;&gt;25 -->
<g id="edge25" class="edge"><title>24&#45;&gt;25</title>
<path fill="none" stroke="black" d="M1370,-296.884C1370,-288.778 1370,-279.982 1370,-271.472"/>
<polygon fill="black" stroke="black" points="1373.5,-271.299 1370,-261.299 1366.5,-271.299 1373.5,-271.299"/>
</g>
<!-- 32 -->
<g id="node33" class="node"><title>32</title>
<polygon fill="none" stroke="black" points="1824,-261 1672,-261 1672,-193 1824,-193 1824,-261"/>
<text text-anchor="middle" x="1748" y="-245.8" font-family="Helvetica,sans-Serif" font-size="14.00">Links_in_tags &lt;= &#45;0.5</text>
<text text-anchor="middle" x="1748" y="-230.8" font-family="Helvetica,sans-Serif" font-size="14.00">gini = 0.071</text>
<text text-anchor="middle" x="1748" y="-215.8" font-family="Helvetica,sans-Serif" font-size="14.00">samples = 3230</text>
<text text-anchor="middle" x="1748" y="-200.8" font-family="Helvetica,sans-Serif" font-size="14.00">value = [119, 3111]</text>
</g>
<!-- 24&#45;&gt;32 -->
<g id="edge32" class="edge"><title>24&#45;&gt;32</title>
<path fill="none" stroke="black" d="M1439.33,-311.292C1502.1,-294.353 1594.79,-269.342 1662.21,-251.149"/>
<polygon fill="black" stroke="black" points="1663.23,-254.501 1671.97,-248.517 1661.4,-247.743 1663.23,-254.501"/>
</g>
<!-- 26 -->
<g id="node27" class="node"><title>26</title>
<polygon fill="none" stroke="black" points="1368,-157 1176,-157 1176,-89 1368,-89 1368,-157"/>
<text text-anchor="middle" x="1272" y="-141.8" font-family="Helvetica,sans-Serif" font-size="14.00">having_Sub_Domain &lt;= 0.5</text>
<text text-anchor="middle" x="1272" y="-126.8" font-family="Helvetica,sans-Serif" font-size="14.00">gini = 0.029</text>
<text text-anchor="middle" x="1272" y="-111.8" font-family="Helvetica,sans-Serif" font-size="14.00">samples = 751</text>
<text text-anchor="middle" x="1272" y="-96.8" font-family="Helvetica,sans-Serif" font-size="14.00">value = [11, 740]</text>
</g>
<!-- 25&#45;&gt;26 -->
<g id="edge26" class="edge"><title>25&#45;&gt;26</title>
<path fill="none" stroke="black" d="M1338.18,-192.884C1329.54,-183.887 1320.08,-174.041 1311.08,-164.678"/>
<polygon fill="black" stroke="black" points="1313.45,-162.086 1303.99,-157.299 1308.4,-166.935 1313.45,-162.086"/>
</g>
<!-- 29 -->
<g id="node30" class="node"><title>29</title>
<polygon fill="none" stroke="black" points="1550,-157 1386,-157 1386,-89 1550,-89 1550,-157"/>
<text text-anchor="middle" x="1468" y="-141.8" font-family="Helvetica,sans-Serif" font-size="14.00">URL_of_Anchor &lt;= 0.5</text>
<text text-anchor="middle" x="1468" y="-126.8" font-family="Helvetica,sans-Serif" font-size="14.00">gini = 0.419</text>
<text text-anchor="middle" x="1468" y="-111.8" font-family="Helvetica,sans-Serif" font-size="14.00">samples = 842</text>
<text text-anchor="middle" x="1468" y="-96.8" font-family="Helvetica,sans-Serif" font-size="14.00">value = [252, 590]</text>
</g>
<!-- 25&#45;&gt;29 -->
<g id="edge29" class="edge"><title>25&#45;&gt;29</title>
<path fill="none" stroke="black" d="M1401.82,-192.884C1410.46,-183.887 1419.92,-174.041 1428.92,-164.678"/>
<polygon fill="black" stroke="black" points="1431.6,-166.935 1436.01,-157.299 1426.55,-162.086 1431.6,-166.935"/>
</g>
<!-- 27 -->
<g id="node28" class="node"><title>27</title>
<polygon fill="none" stroke="black" points="1225.5,-53 1112.5,-53 1112.5,-0 1225.5,-0 1225.5,-53"/>
<text text-anchor="middle" x="1169" y="-37.8" font-family="Helvetica,sans-Serif" font-size="14.00">gini = 0.084</text>
<text text-anchor="middle" x="1169" y="-22.8" font-family="Helvetica,sans-Serif" font-size="14.00">samples = 206</text>
<text text-anchor="middle" x="1169" y="-7.8" font-family="Helvetica,sans-Serif" font-size="14.00">value = [9, 197]</text>
</g>
<!-- 26&#45;&gt;27 -->
<g id="edge27" class="edge"><title>26&#45;&gt;27</title>
<path fill="none" stroke="black" d="M1235.98,-88.9485C1225.81,-79.6175 1214.75,-69.4722 1204.6,-60.1641"/>
<polygon fill="black" stroke="black" points="1206.79,-57.4182 1197.05,-53.2367 1202.05,-62.5762 1206.79,-57.4182"/>
</g>
<!-- 28 -->
<g id="node29" class="node"><title>28</title>
<polygon fill="none" stroke="black" points="1356.5,-53 1243.5,-53 1243.5,-0 1356.5,-0 1356.5,-53"/>
<text text-anchor="middle" x="1300" y="-37.8" font-family="Helvetica,sans-Serif" font-size="14.00">gini = 0.007</text>
<text text-anchor="middle" x="1300" y="-22.8" font-family="Helvetica,sans-Serif" font-size="14.00">samples = 545</text>
<text text-anchor="middle" x="1300" y="-7.8" font-family="Helvetica,sans-Serif" font-size="14.00">value = [2, 543]</text>
</g>
<!-- 26&#45;&gt;28 -->
<g id="edge28" class="edge"><title>26&#45;&gt;28</title>
<path fill="none" stroke="black" d="M1281.79,-88.9485C1284.29,-80.5323 1286.98,-71.4536 1289.5,-62.9243"/>
<polygon fill="black" stroke="black" points="1292.89,-63.819 1292.37,-53.2367 1286.18,-61.8304 1292.89,-63.819"/>
</g>
<!-- 30 -->
<g id="node31" class="node"><title>30</title>
<polygon fill="none" stroke="black" points="1505,-53 1375,-53 1375,-0 1505,-0 1505,-53"/>
<text text-anchor="middle" x="1440" y="-37.8" font-family="Helvetica,sans-Serif" font-size="14.00">gini = 0.47</text>
<text text-anchor="middle" x="1440" y="-22.8" font-family="Helvetica,sans-Serif" font-size="14.00">samples = 667</text>
<text text-anchor="middle" x="1440" y="-7.8" font-family="Helvetica,sans-Serif" font-size="14.00">value = [252, 415]</text>
</g>
<!-- 29&#45;&gt;30 -->
<g id="edge30" class="edge"><title>29&#45;&gt;30</title>
<path fill="none" stroke="black" d="M1458.21,-88.9485C1455.71,-80.5323 1453.02,-71.4536 1450.5,-62.9243"/>
<polygon fill="black" stroke="black" points="1453.82,-61.8304 1447.63,-53.2367 1447.11,-63.819 1453.82,-61.8304"/>
</g>
<!-- 31 -->
<g id="node32" class="node"><title>31</title>
<polygon fill="none" stroke="black" points="1636.5,-53 1523.5,-53 1523.5,-0 1636.5,-0 1636.5,-53"/>
<text text-anchor="middle" x="1580" y="-37.8" font-family="Helvetica,sans-Serif" font-size="14.00">gini = 0.0</text>
<text text-anchor="middle" x="1580" y="-22.8" font-family="Helvetica,sans-Serif" font-size="14.00">samples = 175</text>
<text text-anchor="middle" x="1580" y="-7.8" font-family="Helvetica,sans-Serif" font-size="14.00">value = [0, 175]</text>
</g>
<!-- 29&#45;&gt;31 -->
<g id="edge31" class="edge"><title>29&#45;&gt;31</title>
<path fill="none" stroke="black" d="M1507.17,-88.9485C1518.34,-79.526 1530.49,-69.2731 1541.61,-59.8906"/>
<polygon fill="black" stroke="black" points="1544.11,-62.3605 1549.5,-53.2367 1539.6,-57.0104 1544.11,-62.3605"/>
</g>
<!-- 33 -->
<g id="node34" class="node"><title>33</title>
<polygon fill="none" stroke="black" points="1844,-157 1652,-157 1652,-89 1844,-89 1844,-157"/>
<text text-anchor="middle" x="1748" y="-141.8" font-family="Helvetica,sans-Serif" font-size="14.00">having_Sub_Domain &lt;= 0.5</text>
<text text-anchor="middle" x="1748" y="-126.8" font-family="Helvetica,sans-Serif" font-size="14.00">gini = 0.184</text>
<text text-anchor="middle" x="1748" y="-111.8" font-family="Helvetica,sans-Serif" font-size="14.00">samples = 839</text>
<text text-anchor="middle" x="1748" y="-96.8" font-family="Helvetica,sans-Serif" font-size="14.00">value = [86, 753]</text>
</g>
<!-- 32&#45;&gt;33 -->
<g id="edge33" class="edge"><title>32&#45;&gt;33</title>
<path fill="none" stroke="black" d="M1748,-192.884C1748,-184.778 1748,-175.982 1748,-167.472"/>
<polygon fill="black" stroke="black" points="1751.5,-167.299 1748,-157.299 1744.5,-167.299 1751.5,-167.299"/>
</g>
<!-- 36 -->
<g id="node37" class="node"><title>36</title>
<polygon fill="none" stroke="black" points="2081,-157 1895,-157 1895,-89 2081,-89 2081,-157"/>
<text text-anchor="middle" x="1988" y="-141.8" font-family="Helvetica,sans-Serif" font-size="14.00">having_IP_Address &lt;= 0.0</text>
<text text-anchor="middle" x="1988" y="-126.8" font-family="Helvetica,sans-Serif" font-size="14.00">gini = 0.027</text>
<text text-anchor="middle" x="1988" y="-111.8" font-family="Helvetica,sans-Serif" font-size="14.00">samples = 2391</text>
<text text-anchor="middle" x="1988" y="-96.8" font-family="Helvetica,sans-Serif" font-size="14.00">value = [33, 2358]</text>
</g>
<!-- 32&#45;&gt;36 -->
<g id="edge36" class="edge"><title>32&#45;&gt;36</title>
<path fill="none" stroke="black" d="M1824.27,-193.586C1848.61,-183.241 1875.73,-171.714 1900.79,-161.065"/>
<polygon fill="black" stroke="black" points="1902.45,-164.163 1910.28,-157.031 1899.71,-157.721 1902.45,-164.163"/>
</g>
<!-- 34 -->
<g id="node35" class="node"><title>34</title>
<polygon fill="none" stroke="black" points="1777,-53 1655,-53 1655,-0 1777,-0 1777,-53"/>
<text text-anchor="middle" x="1716" y="-37.8" font-family="Helvetica,sans-Serif" font-size="14.00">gini = 0.291</text>
<text text-anchor="middle" x="1716" y="-22.8" font-family="Helvetica,sans-Serif" font-size="14.00">samples = 453</text>
<text text-anchor="middle" x="1716" y="-7.8" font-family="Helvetica,sans-Serif" font-size="14.00">value = [80, 373]</text>
</g>
<!-- 33&#45;&gt;34 -->
<g id="edge34" class="edge"><title>33&#45;&gt;34</title>
<path fill="none" stroke="black" d="M1736.81,-88.9485C1733.96,-80.5323 1730.88,-71.4536 1728,-62.9243"/>
<polygon fill="black" stroke="black" points="1731.24,-61.5858 1724.72,-53.2367 1724.61,-63.831 1731.24,-61.5858"/>
</g>
<!-- 35 -->
<g id="node36" class="node"><title>35</title>
<polygon fill="none" stroke="black" points="1908.5,-53 1795.5,-53 1795.5,-0 1908.5,-0 1908.5,-53"/>
<text text-anchor="middle" x="1852" y="-37.8" font-family="Helvetica,sans-Serif" font-size="14.00">gini = 0.031</text>
<text text-anchor="middle" x="1852" y="-22.8" font-family="Helvetica,sans-Serif" font-size="14.00">samples = 386</text>
<text text-anchor="middle" x="1852" y="-7.8" font-family="Helvetica,sans-Serif" font-size="14.00">value = [6, 380]</text>
</g>
<!-- 33&#45;&gt;35 -->
<g id="edge35" class="edge"><title>33&#45;&gt;35</title>
<path fill="none" stroke="black" d="M1784.37,-88.9485C1794.64,-79.6175 1805.81,-69.4722 1816.05,-60.1641"/>
<polygon fill="black" stroke="black" points="1818.63,-62.5521 1823.68,-53.2367 1813.92,-57.3713 1818.63,-62.5521"/>
</g>
<!-- 37 -->
<g id="node38" class="node"><title>37</title>
<polygon fill="none" stroke="black" points="2049,-53 1927,-53 1927,-0 2049,-0 2049,-53"/>
<text text-anchor="middle" x="1988" y="-37.8" font-family="Helvetica,sans-Serif" font-size="14.00">gini = 0.064</text>
<text text-anchor="middle" x="1988" y="-22.8" font-family="Helvetica,sans-Serif" font-size="14.00">samples = 638</text>
<text text-anchor="middle" x="1988" y="-7.8" font-family="Helvetica,sans-Serif" font-size="14.00">value = [21, 617]</text>
</g>
<!-- 36&#45;&gt;37 -->
<g id="edge37" class="edge"><title>36&#45;&gt;37</title>
<path fill="none" stroke="black" d="M1988,-88.9485C1988,-80.7153 1988,-71.848 1988,-63.4814"/>
<polygon fill="black" stroke="black" points="1991.5,-63.2367 1988,-53.2367 1984.5,-63.2367 1991.5,-63.2367"/>
</g>
<!-- 38 -->
<g id="node39" class="node"><title>38</title>
<polygon fill="none" stroke="black" points="2197,-53 2067,-53 2067,-0 2197,-0 2197,-53"/>
<text text-anchor="middle" x="2132" y="-37.8" font-family="Helvetica,sans-Serif" font-size="14.00">gini = 0.014</text>
<text text-anchor="middle" x="2132" y="-22.8" font-family="Helvetica,sans-Serif" font-size="14.00">samples = 1753</text>
<text text-anchor="middle" x="2132" y="-7.8" font-family="Helvetica,sans-Serif" font-size="14.00">value = [12, 1741]</text>
</g>
<!-- 36&#45;&gt;38 -->
<g id="edge38" class="edge"><title>36&#45;&gt;38</title>
<path fill="none" stroke="black" d="M2038.36,-88.9485C2053.28,-79.1601 2069.56,-68.4756 2084.3,-58.8015"/>
<polygon fill="black" stroke="black" points="2086.34,-61.6495 2092.78,-53.2367 2082.5,-55.7971 2086.34,-61.6495"/>
</g>
</g>
</svg>
