<?xml version="1.0" encoding="UTF-8" standalone="no"?>
<!DOCTYPE svg PUBLIC "-//W3C//DTD SVG 1.1//EN"
 "http://www.w3.org/Graphics/SVG/1.1/DTD/svg11.dtd">
<!-- Generated by graphviz version 2.38.0 (20140413.2041)
 -->
<!-- Title: Tree Pages: 1 -->
<svg width="1589pt" height="581pt"
 viewBox="0.00 0.00 1588.50 581.00" xmlns="http://www.w3.org/2000/svg" xmlns:xlink="http://www.w3.org/1999/xlink">
<g id="graph0" class="graph" transform="scale(1 1) rotate(0) translate(4 577)">
<title>Tree</title>
<polygon fill="white" stroke="none" points="-4,4 -4,-577 1584.5,-577 1584.5,4 -4,4"/>
<!-- 0 -->
<g id="node1" class="node"><title>0</title>
<polygon fill="none" stroke="black" points="925,-573 779,-573 779,-505 925,-505 925,-573"/>
<text text-anchor="middle" x="852" y="-557.8" font-family="Helvetica,sans-Serif" font-size="14.00">URL_Length &lt;= 0.5</text>
<text text-anchor="middle" x="852" y="-542.8" font-family="Helvetica,sans-Serif" font-size="14.00">gini = 0.5</text>
<text text-anchor="middle" x="852" y="-527.8" font-family="Helvetica,sans-Serif" font-size="14.00">samples = 8000</text>
<text text-anchor="middle" x="852" y="-512.8" font-family="Helvetica,sans-Serif" font-size="14.00">value = [3954, 4046]</text>
</g>
<!-- 1 -->
<g id="node2" class="node"><title>1</title>
<polygon fill="none" stroke="black" points="837,-461.5 715,-461.5 715,-408.5 837,-408.5 837,-461.5"/>
<text text-anchor="middle" x="776" y="-446.3" font-family="Helvetica,sans-Serif" font-size="14.00">gini = 0.0</text>
<text text-anchor="middle" x="776" y="-431.3" font-family="Helvetica,sans-Serif" font-size="14.00">samples = 1840</text>
<text text-anchor="middle" x="776" y="-416.3" font-family="Helvetica,sans-Serif" font-size="14.00">value = [0, 1840]</text>
</g>
<!-- 0&#45;&gt;1 -->
<g id="edge1" class="edge"><title>0&#45;&gt;1</title>
<path fill="none" stroke="black" d="M827.325,-504.884C818.967,-493.666 809.623,-481.126 801.223,-469.852"/>
<polygon fill="black" stroke="black" points="803.796,-467.448 795.015,-461.52 798.183,-471.63 803.796,-467.448"/>
<text text-anchor="middle" x="791.402" y="-482.557" font-family="Helvetica,sans-Serif" font-size="14.00">True</text>
</g>
<!-- 2 -->
<g id="node3" class="node"><title>2</title>
<polygon fill="none" stroke="black" points="1001,-469 855,-469 855,-401 1001,-401 1001,-469"/>
<text text-anchor="middle" x="928" y="-453.8" font-family="Helvetica,sans-Serif" font-size="14.00">Prefix/Suffix &lt;= 0.5</text>
<text text-anchor="middle" x="928" y="-438.8" font-family="Helvetica,sans-Serif" font-size="14.00">gini = 0.46</text>
<text text-anchor="middle" x="928" y="-423.8" font-family="Helvetica,sans-Serif" font-size="14.00">samples = 6160</text>
<text text-anchor="middle" x="928" y="-408.8" font-family="Helvetica,sans-Serif" font-size="14.00">value = [3954, 2206]</text>
</g>
<!-- 0&#45;&gt;2 -->
<g id="edge2" class="edge"><title>0&#45;&gt;2</title>
<path fill="none" stroke="black" d="M876.675,-504.884C883.179,-496.154 890.28,-486.625 897.068,-477.514"/>
<polygon fill="black" stroke="black" points="900.02,-479.409 903.189,-469.299 894.407,-475.227 900.02,-479.409"/>
<text text-anchor="middle" x="906.802" y="-490.337" font-family="Helvetica,sans-Serif" font-size="14.00">False</text>
</g>
<!-- 3 -->
<g id="node4" class="node"><title>3</title>
<polygon fill="none" stroke="black" points="885,-365 739,-365 739,-297 885,-297 885,-365"/>
<text text-anchor="middle" x="812" y="-349.8" font-family="Helvetica,sans-Serif" font-size="14.00">URL_Depth &lt;= 4.5</text>
<text text-anchor="middle" x="812" y="-334.8" font-family="Helvetica,sans-Serif" font-size="14.00">gini = 0.429</text>
<text text-anchor="middle" x="812" y="-319.8" font-family="Helvetica,sans-Serif" font-size="14.00">samples = 5704</text>
<text text-anchor="middle" x="812" y="-304.8" font-family="Helvetica,sans-Serif" font-size="14.00">value = [3930, 1774]</text>
</g>
<!-- 2&#45;&gt;3 -->
<g id="edge3" class="edge"><title>2&#45;&gt;3</title>
<path fill="none" stroke="black" d="M890.338,-400.884C879.904,-391.709 868.465,-381.65 857.63,-372.123"/>
<polygon fill="black" stroke="black" points="859.691,-369.274 849.87,-365.299 855.068,-374.531 859.691,-369.274"/>
</g>
<!-- 18 -->
<g id="node19" class="node"><title>18</title>
<polygon fill="none" stroke="black" points="1116,-365 972,-365 972,-297 1116,-297 1116,-365"/>
<text text-anchor="middle" x="1044" y="-349.8" font-family="Helvetica,sans-Serif" font-size="14.00">Domain_Age &lt;= 0.5</text>
<text text-anchor="middle" x="1044" y="-334.8" font-family="Helvetica,sans-Serif" font-size="14.00">gini = 0.1</text>
<text text-anchor="middle" x="1044" y="-319.8" font-family="Helvetica,sans-Serif" font-size="14.00">samples = 456</text>
<text text-anchor="middle" x="1044" y="-304.8" font-family="Helvetica,sans-Serif" font-size="14.00">value = [24, 432]</text>
</g>
<!-- 2&#45;&gt;18 -->
<g id="edge18" class="edge"><title>2&#45;&gt;18</title>
<path fill="none" stroke="black" d="M965.662,-400.884C976.096,-391.709 987.535,-381.65 998.37,-372.123"/>
<polygon fill="black" stroke="black" points="1000.93,-374.531 1006.13,-365.299 996.309,-369.274 1000.93,-374.531"/>
</g>
<!-- 4 -->
<g id="node5" class="node"><title>4</title>
<polygon fill="none" stroke="black" points="483,-261 345,-261 345,-193 483,-193 483,-261"/>
<text text-anchor="middle" x="414" y="-245.8" font-family="Helvetica,sans-Serif" font-size="14.00">Have_At &lt;= 0.5</text>
<text text-anchor="middle" x="414" y="-230.8" font-family="Helvetica,sans-Serif" font-size="14.00">gini = 0.359</text>
<text text-anchor="middle" x="414" y="-215.8" font-family="Helvetica,sans-Serif" font-size="14.00">samples = 4174</text>
<text text-anchor="middle" x="414" y="-200.8" font-family="Helvetica,sans-Serif" font-size="14.00">value = [3195, 979]</text>
</g>
<!-- 3&#45;&gt;4 -->
<g id="edge4" class="edge"><title>3&#45;&gt;4</title>
<path fill="none" stroke="black" d="M738.537,-311.173C668.818,-293.305 564.353,-266.533 492.896,-248.22"/>
<polygon fill="black" stroke="black" points="493.595,-244.786 483.04,-245.694 491.858,-251.567 493.595,-244.786"/>
</g>
<!-- 11 -->
<g id="node12" class="node"><title>11</title>
<polygon fill="none" stroke="black" points="882,-261 742,-261 742,-193 882,-193 882,-261"/>
<text text-anchor="middle" x="812" y="-245.8" font-family="Helvetica,sans-Serif" font-size="14.00">Web_Traffic &lt;= 0.5</text>
<text text-anchor="middle" x="812" y="-230.8" font-family="Helvetica,sans-Serif" font-size="14.00">gini = 0.499</text>
<text text-anchor="middle" x="812" y="-215.8" font-family="Helvetica,sans-Serif" font-size="14.00">samples = 1530</text>
<text text-anchor="middle" x="812" y="-200.8" font-family="Helvetica,sans-Serif" font-size="14.00">value = [735, 795]</text>
</g>
<!-- 3&#45;&gt;11 -->
<g id="edge11" class="edge"><title>3&#45;&gt;11</title>
<path fill="none" stroke="black" d="M812,-296.884C812,-288.778 812,-279.982 812,-271.472"/>
<polygon fill="black" stroke="black" points="815.5,-271.299 812,-261.299 808.5,-271.299 815.5,-271.299"/>
</g>
<!-- 5 -->
<g id="node6" class="node"><title>5</title>
<polygon fill="none" stroke="black" points="278,-157 140,-157 140,-89 278,-89 278,-157"/>
<text text-anchor="middle" x="209" y="-141.8" font-family="Helvetica,sans-Serif" font-size="14.00">Have_IP &lt;= 0.5</text>
<text text-anchor="middle" x="209" y="-126.8" font-family="Helvetica,sans-Serif" font-size="14.00">gini = 0.345</text>
<text text-anchor="middle" x="209" y="-111.8" font-family="Helvetica,sans-Serif" font-size="14.00">samples = 4080</text>
<text text-anchor="middle" x="209" y="-96.8" font-family="Helvetica,sans-Serif" font-size="14.00">value = [3176, 904]</text>
</g>
<!-- 4&#45;&gt;5 -->
<g id="edge5" class="edge"><title>4&#45;&gt;5</title>
<path fill="none" stroke="black" d="M347.442,-192.884C327.38,-182.901 305.214,-171.872 284.608,-161.619"/>
<polygon fill="black" stroke="black" points="286.086,-158.446 275.574,-157.125 282.968,-164.713 286.086,-158.446"/>
</g>
<!-- 8 -->
<g id="node9" class="node"><title>8</title>
<polygon fill="none" stroke="black" points="482,-157 346,-157 346,-89 482,-89 482,-157"/>
<text text-anchor="middle" x="414" y="-141.8" font-family="Helvetica,sans-Serif" font-size="14.00">URL_Depth &lt;= 2.5</text>
<text text-anchor="middle" x="414" y="-126.8" font-family="Helvetica,sans-Serif" font-size="14.00">gini = 0.323</text>
<text text-anchor="middle" x="414" y="-111.8" font-family="Helvetica,sans-Serif" font-size="14.00">samples = 94</text>
<text text-anchor="middle" x="414" y="-96.8" font-family="Helvetica,sans-Serif" font-size="14.00">value = [19, 75]</text>
</g>
<!-- 4&#45;&gt;8 -->
<g id="edge8" class="edge"><title>4&#45;&gt;8</title>
<path fill="none" stroke="black" d="M414,-192.884C414,-184.778 414,-175.982 414,-167.472"/>
<polygon fill="black" stroke="black" points="417.5,-167.299 414,-157.299 410.5,-167.299 417.5,-167.299"/>
</g>
<!-- 6 -->
<g id="node7" class="node"><title>6</title>
<polygon fill="none" stroke="black" points="138,-53 0,-53 0,-0 138,-0 138,-53"/>
<text text-anchor="middle" x="69" y="-37.8" font-family="Helvetica,sans-Serif" font-size="14.00">gini = 0.342</text>
<text text-anchor="middle" x="69" y="-22.8" font-family="Helvetica,sans-Serif" font-size="14.00">samples = 4068</text>
<text text-anchor="middle" x="69" y="-7.8" font-family="Helvetica,sans-Serif" font-size="14.00">value = [3176, 892]</text>
</g>
<!-- 5&#45;&gt;6 -->
<g id="edge6" class="edge"><title>5&#45;&gt;6</title>
<path fill="none" stroke="black" d="M160.035,-88.9485C145.669,-79.2516 130,-68.6752 115.775,-59.073"/>
<polygon fill="black" stroke="black" points="117.375,-55.9305 107.128,-53.2367 113.459,-61.7325 117.375,-55.9305"/>
</g>
<!-- 7 -->
<g id="node8" class="node"><title>7</title>
<polygon fill="none" stroke="black" points="261.5,-53 156.5,-53 156.5,-0 261.5,-0 261.5,-53"/>
<text text-anchor="middle" x="209" y="-37.8" font-family="Helvetica,sans-Serif" font-size="14.00">gini = 0.0</text>
<text text-anchor="middle" x="209" y="-22.8" font-family="Helvetica,sans-Serif" font-size="14.00">samples = 12</text>
<text text-anchor="middle" x="209" y="-7.8" font-family="Helvetica,sans-Serif" font-size="14.00">value = [0, 12]</text>
</g>
<!-- 5&#45;&gt;7 -->
<g id="edge7" class="edge"><title>5&#45;&gt;7</title>
<path fill="none" stroke="black" d="M209,-88.9485C209,-80.7153 209,-71.848 209,-63.4814"/>
<polygon fill="black" stroke="black" points="212.5,-63.2367 209,-53.2367 205.5,-63.2367 212.5,-63.2367"/>
</g>
<!-- 9 -->
<g id="node10" class="node"><title>9</title>
<polygon fill="none" stroke="black" points="392.5,-53 279.5,-53 279.5,-0 392.5,-0 392.5,-53"/>
<text text-anchor="middle" x="336" y="-37.8" font-family="Helvetica,sans-Serif" font-size="14.00">gini = 0.482</text>
<text text-anchor="middle" x="336" y="-22.8" font-family="Helvetica,sans-Serif" font-size="14.00">samples = 47</text>
<text text-anchor="middle" x="336" y="-7.8" font-family="Helvetica,sans-Serif" font-size="14.00">value = [19, 28]</text>
</g>
<!-- 8&#45;&gt;9 -->
<g id="edge9" class="edge"><title>8&#45;&gt;9</title>
<path fill="none" stroke="black" d="M386.719,-88.9485C379.244,-79.892 371.136,-70.0682 363.64,-60.9875"/>
<polygon fill="black" stroke="black" points="366.308,-58.721 357.243,-53.2367 360.909,-63.1769 366.308,-58.721"/>
</g>
<!-- 10 -->
<g id="node11" class="node"><title>10</title>
<polygon fill="none" stroke="black" points="515.5,-53 410.5,-53 410.5,-0 515.5,-0 515.5,-53"/>
<text text-anchor="middle" x="463" y="-37.8" font-family="Helvetica,sans-Serif" font-size="14.00">gini = 0.0</text>
<text text-anchor="middle" x="463" y="-22.8" font-family="Helvetica,sans-Serif" font-size="14.00">samples = 47</text>
<text text-anchor="middle" x="463" y="-7.8" font-family="Helvetica,sans-Serif" font-size="14.00">value = [0, 47]</text>
</g>
<!-- 8&#45;&gt;10 -->
<g id="edge10" class="edge"><title>8&#45;&gt;10</title>
<path fill="none" stroke="black" d="M431.138,-88.9485C435.597,-80.3494 440.414,-71.0586 444.92,-62.3689"/>
<polygon fill="black" stroke="black" points="448.159,-63.7254 449.655,-53.2367 441.945,-60.5031 448.159,-63.7254"/>
</g>
<!-- 12 -->
<g id="node13" class="node"><title>12</title>
<polygon fill="none" stroke="black" points="770,-157 634,-157 634,-89 770,-89 770,-157"/>
<text text-anchor="middle" x="702" y="-141.8" font-family="Helvetica,sans-Serif" font-size="14.00">URL_Depth &lt;= 6.5</text>
<text text-anchor="middle" x="702" y="-126.8" font-family="Helvetica,sans-Serif" font-size="14.00">gini = 0.16</text>
<text text-anchor="middle" x="702" y="-111.8" font-family="Helvetica,sans-Serif" font-size="14.00">samples = 160</text>
<text text-anchor="middle" x="702" y="-96.8" font-family="Helvetica,sans-Serif" font-size="14.00">value = [14, 146]</text>
</g>
<!-- 11&#45;&gt;12 -->
<g id="edge12" class="edge"><title>11&#45;&gt;12</title>
<path fill="none" stroke="black" d="M776.286,-192.884C766.392,-183.709 755.544,-173.65 745.27,-164.123"/>
<polygon fill="black" stroke="black" points="747.624,-161.532 737.911,-157.299 742.864,-166.665 747.624,-161.532"/>
</g>
<!-- 15 -->
<g id="node16" class="node"><title>15</title>
<polygon fill="none" stroke="black" points="918,-157 788,-157 788,-89 918,-89 918,-157"/>
<text text-anchor="middle" x="853" y="-141.8" font-family="Helvetica,sans-Serif" font-size="14.00">iFrame &lt;= 0.5</text>
<text text-anchor="middle" x="853" y="-126.8" font-family="Helvetica,sans-Serif" font-size="14.00">gini = 0.499</text>
<text text-anchor="middle" x="853" y="-111.8" font-family="Helvetica,sans-Serif" font-size="14.00">samples = 1370</text>
<text text-anchor="middle" x="853" y="-96.8" font-family="Helvetica,sans-Serif" font-size="14.00">value = [721, 649]</text>
</g>
<!-- 11&#45;&gt;15 -->
<g id="edge15" class="edge"><title>11&#45;&gt;15</title>
<path fill="none" stroke="black" d="M825.312,-192.884C828.677,-184.511 832.339,-175.401 835.864,-166.631"/>
<polygon fill="black" stroke="black" points="839.133,-167.883 839.615,-157.299 832.638,-165.272 839.133,-167.883"/>
</g>
<!-- 13 -->
<g id="node14" class="node"><title>13</title>
<polygon fill="none" stroke="black" points="646.5,-53 533.5,-53 533.5,-0 646.5,-0 646.5,-53"/>
<text text-anchor="middle" x="590" y="-37.8" font-family="Helvetica,sans-Serif" font-size="14.00">gini = 0.222</text>
<text text-anchor="middle" x="590" y="-22.8" font-family="Helvetica,sans-Serif" font-size="14.00">samples = 102</text>
<text text-anchor="middle" x="590" y="-7.8" font-family="Helvetica,sans-Serif" font-size="14.00">value = [13, 89]</text>
</g>
<!-- 12&#45;&gt;13 -->
<g id="edge13" class="edge"><title>12&#45;&gt;13</title>
<path fill="none" stroke="black" d="M662.828,-88.9485C651.66,-79.526 639.509,-69.2731 628.389,-59.8906"/>
<polygon fill="black" stroke="black" points="630.403,-57.0104 620.503,-53.2367 625.889,-62.3605 630.403,-57.0104"/>
</g>
<!-- 14 -->
<g id="node15" class="node"><title>14</title>
<polygon fill="none" stroke="black" points="769.5,-53 664.5,-53 664.5,-0 769.5,-0 769.5,-53"/>
<text text-anchor="middle" x="717" y="-37.8" font-family="Helvetica,sans-Serif" font-size="14.00">gini = 0.034</text>
<text text-anchor="middle" x="717" y="-22.8" font-family="Helvetica,sans-Serif" font-size="14.00">samples = 58</text>
<text text-anchor="middle" x="717" y="-7.8" font-family="Helvetica,sans-Serif" font-size="14.00">value = [1, 57]</text>
</g>
<!-- 12&#45;&gt;14 -->
<g id="edge14" class="edge"><title>12&#45;&gt;14</title>
<path fill="none" stroke="black" d="M707.246,-88.9485C708.568,-80.6238 709.992,-71.6509 711.333,-63.2027"/>
<polygon fill="black" stroke="black" points="714.804,-63.6618 712.915,-53.2367 707.89,-62.5643 714.804,-63.6618"/>
</g>
<!-- 16 -->
<g id="node17" class="node"><title>16</title>
<polygon fill="none" stroke="black" points="918,-53 788,-53 788,-0 918,-0 918,-53"/>
<text text-anchor="middle" x="853" y="-37.8" font-family="Helvetica,sans-Serif" font-size="14.00">gini = 0.491</text>
<text text-anchor="middle" x="853" y="-22.8" font-family="Helvetica,sans-Serif" font-size="14.00">samples = 1245</text>
<text text-anchor="middle" x="853" y="-7.8" font-family="Helvetica,sans-Serif" font-size="14.00">value = [706, 539]</text>
</g>
<!-- 15&#45;&gt;16 -->
<g id="edge16" class="edge"><title>15&#45;&gt;16</title>
<path fill="none" stroke="black" d="M853,-88.9485C853,-80.7153 853,-71.848 853,-63.4814"/>
<polygon fill="black" stroke="black" points="856.5,-63.2367 853,-53.2367 849.5,-63.2367 856.5,-63.2367"/>
</g>
<!-- 17 -->
<g id="node18" class="node"><title>17</title>
<polygon fill="none" stroke="black" points="1058,-53 936,-53 936,-0 1058,-0 1058,-53"/>
<text text-anchor="middle" x="997" y="-37.8" font-family="Helvetica,sans-Serif" font-size="14.00">gini = 0.211</text>
<text text-anchor="middle" x="997" y="-22.8" font-family="Helvetica,sans-Serif" font-size="14.00">samples = 125</text>
<text text-anchor="middle" x="997" y="-7.8" font-family="Helvetica,sans-Serif" font-size="14.00">value = [15, 110]</text>
</g>
<!-- 15&#45;&gt;17 -->
<g id="edge17" class="edge"><title>15&#45;&gt;17</title>
<path fill="none" stroke="black" d="M903.364,-88.9485C918.28,-79.1601 934.561,-68.4756 949.303,-58.8015"/>
<polygon fill="black" stroke="black" points="951.342,-61.6495 957.782,-53.2367 947.501,-55.7971 951.342,-61.6495"/>
</g>
<!-- 19 -->
<g id="node20" class="node"><title>19</title>
<polygon fill="none" stroke="black" points="1114,-261 974,-261 974,-193 1114,-193 1114,-261"/>
<text text-anchor="middle" x="1044" y="-245.8" font-family="Helvetica,sans-Serif" font-size="14.00">Web_Traffic &lt;= 0.5</text>
<text text-anchor="middle" x="1044" y="-230.8" font-family="Helvetica,sans-Serif" font-size="14.00">gini = 0.157</text>
<text text-anchor="middle" x="1044" y="-215.8" font-family="Helvetica,sans-Serif" font-size="14.00">samples = 256</text>
<text text-anchor="middle" x="1044" y="-200.8" font-family="Helvetica,sans-Serif" font-size="14.00">value = [22, 234]</text>
</g>
<!-- 18&#45;&gt;19 -->
<g id="edge19" class="edge"><title>18&#45;&gt;19</title>
<path fill="none" stroke="black" d="M1044,-296.884C1044,-288.778 1044,-279.982 1044,-271.472"/>
<polygon fill="black" stroke="black" points="1047.5,-271.299 1044,-261.299 1040.5,-271.299 1047.5,-271.299"/>
</g>
<!-- 24 -->
<g id="node25" class="node"><title>24</title>
<polygon fill="none" stroke="black" points="1447,-261 1311,-261 1311,-193 1447,-193 1447,-261"/>
<text text-anchor="middle" x="1379" y="-245.8" font-family="Helvetica,sans-Serif" font-size="14.00">URL_Depth &lt;= 2.5</text>
<text text-anchor="middle" x="1379" y="-230.8" font-family="Helvetica,sans-Serif" font-size="14.00">gini = 0.02</text>
<text text-anchor="middle" x="1379" y="-215.8" font-family="Helvetica,sans-Serif" font-size="14.00">samples = 200</text>
<text text-anchor="middle" x="1379" y="-200.8" font-family="Helvetica,sans-Serif" font-size="14.00">value = [2, 198]</text>
</g>
<!-- 18&#45;&gt;24 -->
<g id="edge24" class="edge"><title>18&#45;&gt;24</title>
<path fill="none" stroke="black" d="M1116.28,-307.993C1170.71,-291.419 1245.24,-268.727 1301.02,-251.744"/>
<polygon fill="black" stroke="black" points="1302.3,-255.011 1310.85,-248.75 1300.27,-248.314 1302.3,-255.011"/>
</g>
<!-- 20 -->
<g id="node21" class="node"><title>20</title>
<polygon fill="none" stroke="black" points="1083.5,-149.5 978.5,-149.5 978.5,-96.5 1083.5,-96.5 1083.5,-149.5"/>
<text text-anchor="middle" x="1031" y="-134.3" font-family="Helvetica,sans-Serif" font-size="14.00">gini = 0.0</text>
<text text-anchor="middle" x="1031" y="-119.3" font-family="Helvetica,sans-Serif" font-size="14.00">samples = 63</text>
<text text-anchor="middle" x="1031" y="-104.3" font-family="Helvetica,sans-Serif" font-size="14.00">value = [0, 63]</text>
</g>
<!-- 19&#45;&gt;20 -->
<g id="edge20" class="edge"><title>19&#45;&gt;20</title>
<path fill="none" stroke="black" d="M1039.78,-192.884C1038.42,-182.216 1036.91,-170.352 1035.53,-159.519"/>
<polygon fill="black" stroke="black" points="1038.99,-158.997 1034.25,-149.52 1032.04,-159.882 1038.99,-158.997"/>
</g>
<!-- 21 -->
<g id="node22" class="node"><title>21</title>
<polygon fill="none" stroke="black" points="1238,-157 1102,-157 1102,-89 1238,-89 1238,-157"/>
<text text-anchor="middle" x="1170" y="-141.8" font-family="Helvetica,sans-Serif" font-size="14.00">URL_Depth &lt;= 2.5</text>
<text text-anchor="middle" x="1170" y="-126.8" font-family="Helvetica,sans-Serif" font-size="14.00">gini = 0.202</text>
<text text-anchor="middle" x="1170" y="-111.8" font-family="Helvetica,sans-Serif" font-size="14.00">samples = 193</text>
<text text-anchor="middle" x="1170" y="-96.8" font-family="Helvetica,sans-Serif" font-size="14.00">value = [22, 171]</text>
</g>
<!-- 19&#45;&gt;21 -->
<g id="edge21" class="edge"><title>19&#45;&gt;21</title>
<path fill="none" stroke="black" d="M1084.91,-192.884C1096.35,-183.62 1108.91,-173.455 1120.78,-163.845"/>
<polygon fill="black" stroke="black" points="1123.3,-166.312 1128.87,-157.299 1118.89,-160.871 1123.3,-166.312"/>
</g>
<!-- 22 -->
<g id="node23" class="node"><title>22</title>
<polygon fill="none" stroke="black" points="1181.5,-53 1076.5,-53 1076.5,-0 1181.5,-0 1181.5,-53"/>
<text text-anchor="middle" x="1129" y="-37.8" font-family="Helvetica,sans-Serif" font-size="14.00">gini = 0.097</text>
<text text-anchor="middle" x="1129" y="-22.8" font-family="Helvetica,sans-Serif" font-size="14.00">samples = 78</text>
<text text-anchor="middle" x="1129" y="-7.8" font-family="Helvetica,sans-Serif" font-size="14.00">value = [4, 74]</text>
</g>
<!-- 21&#45;&gt;22 -->
<g id="edge22" class="edge"><title>21&#45;&gt;22</title>
<path fill="none" stroke="black" d="M1155.66,-88.9485C1151.97,-80.4408 1147.98,-71.2562 1144.25,-62.6464"/>
<polygon fill="black" stroke="black" points="1147.36,-61.0174 1140.17,-53.2367 1140.94,-63.8036 1147.36,-61.0174"/>
</g>
<!-- 23 -->
<g id="node24" class="node"><title>23</title>
<polygon fill="none" stroke="black" points="1312.5,-53 1199.5,-53 1199.5,-0 1312.5,-0 1312.5,-53"/>
<text text-anchor="middle" x="1256" y="-37.8" font-family="Helvetica,sans-Serif" font-size="14.00">gini = 0.264</text>
<text text-anchor="middle" x="1256" y="-22.8" font-family="Helvetica,sans-Serif" font-size="14.00">samples = 115</text>
<text text-anchor="middle" x="1256" y="-7.8" font-family="Helvetica,sans-Serif" font-size="14.00">value = [18, 97]</text>
</g>
<!-- 21&#45;&gt;23 -->
<g id="edge23" class="edge"><title>21&#45;&gt;23</title>
<path fill="none" stroke="black" d="M1200.08,-88.9485C1208.4,-79.8005 1217.44,-69.8697 1225.77,-60.7126"/>
<polygon fill="black" stroke="black" points="1228.44,-62.9883 1232.58,-53.2367 1223.26,-58.2769 1228.44,-62.9883"/>
</g>
<!-- 25 -->
<g id="node26" class="node"><title>25</title>
<polygon fill="none" stroke="black" points="1449,-157 1309,-157 1309,-89 1449,-89 1449,-157"/>
<text text-anchor="middle" x="1379" y="-141.8" font-family="Helvetica,sans-Serif" font-size="14.00">Web_Traffic &lt;= 0.5</text>
<text text-anchor="middle" x="1379" y="-126.8" font-family="Helvetica,sans-Serif" font-size="14.00">gini = 0.064</text>
<text text-anchor="middle" x="1379" y="-111.8" font-family="Helvetica,sans-Serif" font-size="14.00">samples = 60</text>
<text text-anchor="middle" x="1379" y="-96.8" font-family="Helvetica,sans-Serif" font-size="14.00">value = [2, 58]</text>
</g>
<!-- 24&#45;&gt;25 -->
<g id="edge25" class="edge"><title>24&#45;&gt;25</title>
<path fill="none" stroke="black" d="M1379,-192.884C1379,-184.778 1379,-175.982 1379,-167.472"/>
<polygon fill="black" stroke="black" points="1382.5,-167.299 1379,-157.299 1375.5,-167.299 1382.5,-167.299"/>
</g>
<!-- 28 -->
<g id="node29" class="node"><title>28</title>
<polygon fill="none" stroke="black" points="1580.5,-149.5 1467.5,-149.5 1467.5,-96.5 1580.5,-96.5 1580.5,-149.5"/>
<text text-anchor="middle" x="1524" y="-134.3" font-family="Helvetica,sans-Serif" font-size="14.00">gini = 0.0</text>
<text text-anchor="middle" x="1524" y="-119.3" font-family="Helvetica,sans-Serif" font-size="14.00">samples = 140</text>
<text text-anchor="middle" x="1524" y="-104.3" font-family="Helvetica,sans-Serif" font-size="14.00">value = [0, 140]</text>
</g>
<!-- 24&#45;&gt;28 -->
<g id="edge28" class="edge"><title>24&#45;&gt;28</title>
<path fill="none" stroke="black" d="M1426.08,-192.884C1443.12,-180.896 1462.31,-167.399 1479.15,-155.549"/>
<polygon fill="black" stroke="black" points="1481.56,-158.136 1487.72,-149.52 1477.53,-152.411 1481.56,-158.136"/>
</g>
<!-- 26 -->
<g id="node27" class="node"><title>26</title>
<polygon fill="none" stroke="black" points="1427.5,-53 1330.5,-53 1330.5,-0 1427.5,-0 1427.5,-53"/>
<text text-anchor="middle" x="1379" y="-37.8" font-family="Helvetica,sans-Serif" font-size="14.00">gini = 0.32</text>
<text text-anchor="middle" x="1379" y="-22.8" font-family="Helvetica,sans-Serif" font-size="14.00">samples = 5</text>
<text text-anchor="middle" x="1379" y="-7.8" font-family="Helvetica,sans-Serif" font-size="14.00">value = [1, 4]</text>
</g>
<!-- 25&#45;&gt;26 -->
<g id="edge26" class="edge"><title>25&#45;&gt;26</title>
<path fill="none" stroke="black" d="M1379,-88.9485C1379,-80.7153 1379,-71.848 1379,-63.4814"/>
<polygon fill="black" stroke="black" points="1382.5,-63.2367 1379,-53.2367 1375.5,-63.2367 1382.5,-63.2367"/>
</g>
<!-- 27 -->
<g id="node28" class="node"><title>27</title>
<polygon fill="none" stroke="black" points="1550.5,-53 1445.5,-53 1445.5,-0 1550.5,-0 1550.5,-53"/>
<text text-anchor="middle" x="1498" y="-37.8" font-family="Helvetica,sans-Serif" font-size="14.00">gini = 0.036</text>
<text text-anchor="middle" x="1498" y="-22.8" font-family="Helvetica,sans-Serif" font-size="14.00">samples = 55</text>
<text text-anchor="middle" x="1498" y="-7.8" font-family="Helvetica,sans-Serif" font-size="14.00">value = [1, 54]</text>
</g>
<!-- 25&#45;&gt;27 -->
<g id="edge27" class="edge"><title>25&#45;&gt;27</title>
<path fill="none" stroke="black" d="M1420.62,-88.9485C1432.6,-79.4346 1445.65,-69.074 1457.56,-59.6175"/>
<polygon fill="black" stroke="black" points="1459.94,-62.1965 1465.59,-53.2367 1455.58,-56.7147 1459.94,-62.1965"/>
</g>
</g>
</svg>
