<?xml version="1.0" encoding="utf-8" standalone="no"?>
<!DOCTYPE svg PUBLIC "-//W3C//DTD SVG 1.1//EN"
  "http://www.w3.org/Graphics/SVG/1.1/DTD/svg11.dtd">
<svg xmlns:xlink="http://www.w3.org/1999/xlink" width="1180.087688pt" height="656.227075pt" viewBox="0 0 1180.087688 656.227075" xmlns="http://www.w3.org/2000/svg" version="1.1">
 <metadata>
  <rdf:RDF xmlns:dc="http://purl.org/dc/elements/1.1/" xmlns:cc="http://creativecommons.org/ns#" xmlns:rdf="http://www.w3.org/1999/02/22-rdf-syntax-ns#">
   <cc:Work>
    <dc:type rdf:resource="http://purl.org/dc/dcmitype/StillImage"/>
    <dc:date>2022-12-12T19:43:17.205522</dc:date>
    <dc:format>image/svg+xml</dc:format>
    <dc:creator>
     <cc:Agent>
      <dc:title>Matplotlib v3.5.3, https://matplotlib.org/</dc:title>
     </cc:Agent>
    </dc:creator>
   </cc:Work>
  </rdf:RDF>
 </metadata>
 <defs>
  <style type="text/css">*{stroke-linejoin: round; stroke-linecap: butt}</style>
 </defs>
 <g id="figure_1">
  <g id="patch_1">
   <path d="M 0 656.227075 
L 1180.087688 656.227075 
L 1180.087688 0 
L 0 0 
z
" style="fill: #f0f0f0"/>
  </g>
  <g id="axes_1">
   <g id="patch_2">
    <path d="M 233.287688 611.71845 
L 1172.887688 611.71845 
L 1172.887688 28.51845 
L 233.287688 28.51845 
z
" style="fill: #f0f0f0"/>
   </g>
   <g id="matplotlib.axis_1">
    <g id="xtick_1">
     <g id="line2d_1">
      <path d="M 233.287688 611.71845 
L 233.287688 28.51845 
" clip-path="url(#p8e2b7fcf3c)" style="fill: none; stroke: #cbcbcb"/>
     </g>
     <g id="line2d_2"/>
     <g id="text_1">
      <!-- 0.00 -->
      <g transform="translate(217.70175 625.856262)scale(0.14 -0.14)">
       <defs>
        <path id="DejaVuSans-30" d="M 2034 4250 
Q 1547 4250 1301 3770 
Q 1056 3291 1056 2328 
Q 1056 1369 1301 889 
Q 1547 409 2034 409 
Q 2525 409 2770 889 
Q 3016 1369 3016 2328 
Q 3016 3291 2770 3770 
Q 2525 4250 2034 4250 
z
M 2034 4750 
Q 2819 4750 3233 4129 
Q 3647 3509 3647 2328 
Q 3647 1150 3233 529 
Q 2819 -91 2034 -91 
Q 1250 -91 836 529 
Q 422 1150 422 2328 
Q 422 3509 836 4129 
Q 1250 4750 2034 4750 
z
" transform="scale(0.015625)"/>
        <path id="DejaVuSans-2e" d="M 684 794 
L 1344 794 
L 1344 0 
L 684 0 
L 684 794 
z
" transform="scale(0.015625)"/>
       </defs>
       <use xlink:href="#DejaVuSans-30"/>
       <use xlink:href="#DejaVuSans-2e" x="63.623047"/>
       <use xlink:href="#DejaVuSans-30" x="95.410156"/>
       <use xlink:href="#DejaVuSans-30" x="159.033203"/>
      </g>
     </g>
    </g>
    <g id="xtick_2">
     <g id="line2d_3">
      <path d="M 344.205272 611.71845 
L 344.205272 28.51845 
" clip-path="url(#p8e2b7fcf3c)" style="fill: none; stroke: #cbcbcb"/>
     </g>
     <g id="line2d_4"/>
     <g id="text_2">
      <!-- 0.05 -->
      <g transform="translate(328.619335 625.856262)scale(0.14 -0.14)">
       <defs>
        <path id="DejaVuSans-35" d="M 691 4666 
L 3169 4666 
L 3169 4134 
L 1269 4134 
L 1269 2991 
Q 1406 3038 1543 3061 
Q 1681 3084 1819 3084 
Q 2600 3084 3056 2656 
Q 3513 2228 3513 1497 
Q 3513 744 3044 326 
Q 2575 -91 1722 -91 
Q 1428 -91 1123 -41 
Q 819 9 494 109 
L 494 744 
Q 775 591 1075 516 
Q 1375 441 1709 441 
Q 2250 441 2565 725 
Q 2881 1009 2881 1497 
Q 2881 1984 2565 2268 
Q 2250 2553 1709 2553 
Q 1456 2553 1204 2497 
Q 953 2441 691 2322 
L 691 4666 
z
" transform="scale(0.015625)"/>
       </defs>
       <use xlink:href="#DejaVuSans-30"/>
       <use xlink:href="#DejaVuSans-2e" x="63.623047"/>
       <use xlink:href="#DejaVuSans-30" x="95.410156"/>
       <use xlink:href="#DejaVuSans-35" x="159.033203"/>
      </g>
     </g>
    </g>
    <g id="xtick_3">
     <g id="line2d_5">
      <path d="M 455.122857 611.71845 
L 455.122857 28.51845 
" clip-path="url(#p8e2b7fcf3c)" style="fill: none; stroke: #cbcbcb"/>
     </g>
     <g id="line2d_6"/>
     <g id="text_3">
      <!-- 0.10 -->
      <g transform="translate(439.536919 625.856262)scale(0.14 -0.14)">
       <defs>
        <path id="DejaVuSans-31" d="M 794 531 
L 1825 531 
L 1825 4091 
L 703 3866 
L 703 4441 
L 1819 4666 
L 2450 4666 
L 2450 531 
L 3481 531 
L 3481 0 
L 794 0 
L 794 531 
z
" transform="scale(0.015625)"/>
       </defs>
       <use xlink:href="#DejaVuSans-30"/>
       <use xlink:href="#DejaVuSans-2e" x="63.623047"/>
       <use xlink:href="#DejaVuSans-31" x="95.410156"/>
       <use xlink:href="#DejaVuSans-30" x="159.033203"/>
      </g>
     </g>
    </g>
    <g id="xtick_4">
     <g id="line2d_7">
      <path d="M 566.040441 611.71845 
L 566.040441 28.51845 
" clip-path="url(#p8e2b7fcf3c)" style="fill: none; stroke: #cbcbcb"/>
     </g>
     <g id="line2d_8"/>
     <g id="text_4">
      <!-- 0.15 -->
      <g transform="translate(550.454504 625.856262)scale(0.14 -0.14)">
       <use xlink:href="#DejaVuSans-30"/>
       <use xlink:href="#DejaVuSans-2e" x="63.623047"/>
       <use xlink:href="#DejaVuSans-31" x="95.410156"/>
       <use xlink:href="#DejaVuSans-35" x="159.033203"/>
      </g>
     </g>
    </g>
    <g id="xtick_5">
     <g id="line2d_9">
      <path d="M 676.958026 611.71845 
L 676.958026 28.51845 
" clip-path="url(#p8e2b7fcf3c)" style="fill: none; stroke: #cbcbcb"/>
     </g>
     <g id="line2d_10"/>
     <g id="text_5">
      <!-- 0.20 -->
      <g transform="translate(661.372089 625.856262)scale(0.14 -0.14)">
       <defs>
        <path id="DejaVuSans-32" d="M 1228 531 
L 3431 531 
L 3431 0 
L 469 0 
L 469 531 
Q 828 903 1448 1529 
Q 2069 2156 2228 2338 
Q 2531 2678 2651 2914 
Q 2772 3150 2772 3378 
Q 2772 3750 2511 3984 
Q 2250 4219 1831 4219 
Q 1534 4219 1204 4116 
Q 875 4013 500 3803 
L 500 4441 
Q 881 4594 1212 4672 
Q 1544 4750 1819 4750 
Q 2544 4750 2975 4387 
Q 3406 4025 3406 3419 
Q 3406 3131 3298 2873 
Q 3191 2616 2906 2266 
Q 2828 2175 2409 1742 
Q 1991 1309 1228 531 
z
" transform="scale(0.015625)"/>
       </defs>
       <use xlink:href="#DejaVuSans-30"/>
       <use xlink:href="#DejaVuSans-2e" x="63.623047"/>
       <use xlink:href="#DejaVuSans-32" x="95.410156"/>
       <use xlink:href="#DejaVuSans-30" x="159.033203"/>
      </g>
     </g>
    </g>
    <g id="xtick_6">
     <g id="line2d_11">
      <path d="M 787.875611 611.71845 
L 787.875611 28.51845 
" clip-path="url(#p8e2b7fcf3c)" style="fill: none; stroke: #cbcbcb"/>
     </g>
     <g id="line2d_12"/>
     <g id="text_6">
      <!-- 0.25 -->
      <g transform="translate(772.289673 625.856262)scale(0.14 -0.14)">
       <use xlink:href="#DejaVuSans-30"/>
       <use xlink:href="#DejaVuSans-2e" x="63.623047"/>
       <use xlink:href="#DejaVuSans-32" x="95.410156"/>
       <use xlink:href="#DejaVuSans-35" x="159.033203"/>
      </g>
     </g>
    </g>
    <g id="xtick_7">
     <g id="line2d_13">
      <path d="M 898.793195 611.71845 
L 898.793195 28.51845 
" clip-path="url(#p8e2b7fcf3c)" style="fill: none; stroke: #cbcbcb"/>
     </g>
     <g id="line2d_14"/>
     <g id="text_7">
      <!-- 0.30 -->
      <g transform="translate(883.207258 625.856262)scale(0.14 -0.14)">
       <defs>
        <path id="DejaVuSans-33" d="M 2597 2516 
Q 3050 2419 3304 2112 
Q 3559 1806 3559 1356 
Q 3559 666 3084 287 
Q 2609 -91 1734 -91 
Q 1441 -91 1130 -33 
Q 819 25 488 141 
L 488 750 
Q 750 597 1062 519 
Q 1375 441 1716 441 
Q 2309 441 2620 675 
Q 2931 909 2931 1356 
Q 2931 1769 2642 2001 
Q 2353 2234 1838 2234 
L 1294 2234 
L 1294 2753 
L 1863 2753 
Q 2328 2753 2575 2939 
Q 2822 3125 2822 3475 
Q 2822 3834 2567 4026 
Q 2313 4219 1838 4219 
Q 1578 4219 1281 4162 
Q 984 4106 628 3988 
L 628 4550 
Q 988 4650 1302 4700 
Q 1616 4750 1894 4750 
Q 2613 4750 3031 4423 
Q 3450 4097 3450 3541 
Q 3450 3153 3228 2886 
Q 3006 2619 2597 2516 
z
" transform="scale(0.015625)"/>
       </defs>
       <use xlink:href="#DejaVuSans-30"/>
       <use xlink:href="#DejaVuSans-2e" x="63.623047"/>
       <use xlink:href="#DejaVuSans-33" x="95.410156"/>
       <use xlink:href="#DejaVuSans-30" x="159.033203"/>
      </g>
     </g>
    </g>
    <g id="xtick_8">
     <g id="line2d_15">
      <path d="M 1009.71078 611.71845 
L 1009.71078 28.51845 
" clip-path="url(#p8e2b7fcf3c)" style="fill: none; stroke: #cbcbcb"/>
     </g>
     <g id="line2d_16"/>
     <g id="text_8">
      <!-- 0.35 -->
      <g transform="translate(994.124842 625.856262)scale(0.14 -0.14)">
       <use xlink:href="#DejaVuSans-30"/>
       <use xlink:href="#DejaVuSans-2e" x="63.623047"/>
       <use xlink:href="#DejaVuSans-33" x="95.410156"/>
       <use xlink:href="#DejaVuSans-35" x="159.033203"/>
      </g>
     </g>
    </g>
    <g id="xtick_9">
     <g id="line2d_17">
      <path d="M 1120.628365 611.71845 
L 1120.628365 28.51845 
" clip-path="url(#p8e2b7fcf3c)" style="fill: none; stroke: #cbcbcb"/>
     </g>
     <g id="line2d_18"/>
     <g id="text_9">
      <!-- 0.40 -->
      <g transform="translate(1105.042427 625.856262)scale(0.14 -0.14)">
       <defs>
        <path id="DejaVuSans-34" d="M 2419 4116 
L 825 1625 
L 2419 1625 
L 2419 4116 
z
M 2253 4666 
L 3047 4666 
L 3047 1625 
L 3713 1625 
L 3713 1100 
L 3047 1100 
L 3047 0 
L 2419 0 
L 2419 1100 
L 313 1100 
L 313 1709 
L 2253 4666 
z
" transform="scale(0.015625)"/>
       </defs>
       <use xlink:href="#DejaVuSans-30"/>
       <use xlink:href="#DejaVuSans-2e" x="63.623047"/>
       <use xlink:href="#DejaVuSans-34" x="95.410156"/>
       <use xlink:href="#DejaVuSans-30" x="159.033203"/>
      </g>
     </g>
    </g>
    <g id="text_10">
     <!-- Feature Importance -->
     <g transform="translate(620.545875 645.5332)scale(0.168 -0.168)">
      <defs>
       <path id="DejaVuSans-46" d="M 628 4666 
L 3309 4666 
L 3309 4134 
L 1259 4134 
L 1259 2759 
L 3109 2759 
L 3109 2228 
L 1259 2228 
L 1259 0 
L 628 0 
L 628 4666 
z
" transform="scale(0.015625)"/>
       <path id="DejaVuSans-65" d="M 3597 1894 
L 3597 1613 
L 953 1613 
Q 991 1019 1311 708 
Q 1631 397 2203 397 
Q 2534 397 2845 478 
Q 3156 559 3463 722 
L 3463 178 
Q 3153 47 2828 -22 
Q 2503 -91 2169 -91 
Q 1331 -91 842 396 
Q 353 884 353 1716 
Q 353 2575 817 3079 
Q 1281 3584 2069 3584 
Q 2775 3584 3186 3129 
Q 3597 2675 3597 1894 
z
M 3022 2063 
Q 3016 2534 2758 2815 
Q 2500 3097 2075 3097 
Q 1594 3097 1305 2825 
Q 1016 2553 972 2059 
L 3022 2063 
z
" transform="scale(0.015625)"/>
       <path id="DejaVuSans-61" d="M 2194 1759 
Q 1497 1759 1228 1600 
Q 959 1441 959 1056 
Q 959 750 1161 570 
Q 1363 391 1709 391 
Q 2188 391 2477 730 
Q 2766 1069 2766 1631 
L 2766 1759 
L 2194 1759 
z
M 3341 1997 
L 3341 0 
L 2766 0 
L 2766 531 
Q 2569 213 2275 61 
Q 1981 -91 1556 -91 
Q 1019 -91 701 211 
Q 384 513 384 1019 
Q 384 1609 779 1909 
Q 1175 2209 1959 2209 
L 2766 2209 
L 2766 2266 
Q 2766 2663 2505 2880 
Q 2244 3097 1772 3097 
Q 1472 3097 1187 3025 
Q 903 2953 641 2809 
L 641 3341 
Q 956 3463 1253 3523 
Q 1550 3584 1831 3584 
Q 2591 3584 2966 3190 
Q 3341 2797 3341 1997 
z
" transform="scale(0.015625)"/>
       <path id="DejaVuSans-74" d="M 1172 4494 
L 1172 3500 
L 2356 3500 
L 2356 3053 
L 1172 3053 
L 1172 1153 
Q 1172 725 1289 603 
Q 1406 481 1766 481 
L 2356 481 
L 2356 0 
L 1766 0 
Q 1100 0 847 248 
Q 594 497 594 1153 
L 594 3053 
L 172 3053 
L 172 3500 
L 594 3500 
L 594 4494 
L 1172 4494 
z
" transform="scale(0.015625)"/>
       <path id="DejaVuSans-75" d="M 544 1381 
L 544 3500 
L 1119 3500 
L 1119 1403 
Q 1119 906 1312 657 
Q 1506 409 1894 409 
Q 2359 409 2629 706 
Q 2900 1003 2900 1516 
L 2900 3500 
L 3475 3500 
L 3475 0 
L 2900 0 
L 2900 538 
Q 2691 219 2414 64 
Q 2138 -91 1772 -91 
Q 1169 -91 856 284 
Q 544 659 544 1381 
z
M 1991 3584 
L 1991 3584 
z
" transform="scale(0.015625)"/>
       <path id="DejaVuSans-72" d="M 2631 2963 
Q 2534 3019 2420 3045 
Q 2306 3072 2169 3072 
Q 1681 3072 1420 2755 
Q 1159 2438 1159 1844 
L 1159 0 
L 581 0 
L 581 3500 
L 1159 3500 
L 1159 2956 
Q 1341 3275 1631 3429 
Q 1922 3584 2338 3584 
Q 2397 3584 2469 3576 
Q 2541 3569 2628 3553 
L 2631 2963 
z
" transform="scale(0.015625)"/>
       <path id="DejaVuSans-20" transform="scale(0.015625)"/>
       <path id="DejaVuSans-49" d="M 628 4666 
L 1259 4666 
L 1259 0 
L 628 0 
L 628 4666 
z
" transform="scale(0.015625)"/>
       <path id="DejaVuSans-6d" d="M 3328 2828 
Q 3544 3216 3844 3400 
Q 4144 3584 4550 3584 
Q 5097 3584 5394 3201 
Q 5691 2819 5691 2113 
L 5691 0 
L 5113 0 
L 5113 2094 
Q 5113 2597 4934 2840 
Q 4756 3084 4391 3084 
Q 3944 3084 3684 2787 
Q 3425 2491 3425 1978 
L 3425 0 
L 2847 0 
L 2847 2094 
Q 2847 2600 2669 2842 
Q 2491 3084 2119 3084 
Q 1678 3084 1418 2786 
Q 1159 2488 1159 1978 
L 1159 0 
L 581 0 
L 581 3500 
L 1159 3500 
L 1159 2956 
Q 1356 3278 1631 3431 
Q 1906 3584 2284 3584 
Q 2666 3584 2933 3390 
Q 3200 3197 3328 2828 
z
" transform="scale(0.015625)"/>
       <path id="DejaVuSans-70" d="M 1159 525 
L 1159 -1331 
L 581 -1331 
L 581 3500 
L 1159 3500 
L 1159 2969 
Q 1341 3281 1617 3432 
Q 1894 3584 2278 3584 
Q 2916 3584 3314 3078 
Q 3713 2572 3713 1747 
Q 3713 922 3314 415 
Q 2916 -91 2278 -91 
Q 1894 -91 1617 61 
Q 1341 213 1159 525 
z
M 3116 1747 
Q 3116 2381 2855 2742 
Q 2594 3103 2138 3103 
Q 1681 3103 1420 2742 
Q 1159 2381 1159 1747 
Q 1159 1113 1420 752 
Q 1681 391 2138 391 
Q 2594 391 2855 752 
Q 3116 1113 3116 1747 
z
" transform="scale(0.015625)"/>
       <path id="DejaVuSans-6f" d="M 1959 3097 
Q 1497 3097 1228 2736 
Q 959 2375 959 1747 
Q 959 1119 1226 758 
Q 1494 397 1959 397 
Q 2419 397 2687 759 
Q 2956 1122 2956 1747 
Q 2956 2369 2687 2733 
Q 2419 3097 1959 3097 
z
M 1959 3584 
Q 2709 3584 3137 3096 
Q 3566 2609 3566 1747 
Q 3566 888 3137 398 
Q 2709 -91 1959 -91 
Q 1206 -91 779 398 
Q 353 888 353 1747 
Q 353 2609 779 3096 
Q 1206 3584 1959 3584 
z
" transform="scale(0.015625)"/>
       <path id="DejaVuSans-6e" d="M 3513 2113 
L 3513 0 
L 2938 0 
L 2938 2094 
Q 2938 2591 2744 2837 
Q 2550 3084 2163 3084 
Q 1697 3084 1428 2787 
Q 1159 2491 1159 1978 
L 1159 0 
L 581 0 
L 581 3500 
L 1159 3500 
L 1159 2956 
Q 1366 3272 1645 3428 
Q 1925 3584 2291 3584 
Q 2894 3584 3203 3211 
Q 3513 2838 3513 2113 
z
" transform="scale(0.015625)"/>
       <path id="DejaVuSans-63" d="M 3122 3366 
L 3122 2828 
Q 2878 2963 2633 3030 
Q 2388 3097 2138 3097 
Q 1578 3097 1268 2742 
Q 959 2388 959 1747 
Q 959 1106 1268 751 
Q 1578 397 2138 397 
Q 2388 397 2633 464 
Q 2878 531 3122 666 
L 3122 134 
Q 2881 22 2623 -34 
Q 2366 -91 2075 -91 
Q 1284 -91 818 406 
Q 353 903 353 1747 
Q 353 2603 823 3093 
Q 1294 3584 2113 3584 
Q 2378 3584 2631 3529 
Q 2884 3475 3122 3366 
z
" transform="scale(0.015625)"/>
      </defs>
      <use xlink:href="#DejaVuSans-46"/>
      <use xlink:href="#DejaVuSans-65" x="52.019531"/>
      <use xlink:href="#DejaVuSans-61" x="113.542969"/>
      <use xlink:href="#DejaVuSans-74" x="174.822266"/>
      <use xlink:href="#DejaVuSans-75" x="214.03125"/>
      <use xlink:href="#DejaVuSans-72" x="277.410156"/>
      <use xlink:href="#DejaVuSans-65" x="316.273438"/>
      <use xlink:href="#DejaVuSans-20" x="377.796875"/>
      <use xlink:href="#DejaVuSans-49" x="409.583984"/>
      <use xlink:href="#DejaVuSans-6d" x="439.076172"/>
      <use xlink:href="#DejaVuSans-70" x="536.488281"/>
      <use xlink:href="#DejaVuSans-6f" x="599.964844"/>
      <use xlink:href="#DejaVuSans-72" x="661.146484"/>
      <use xlink:href="#DejaVuSans-74" x="702.259766"/>
      <use xlink:href="#DejaVuSans-61" x="741.46875"/>
      <use xlink:href="#DejaVuSans-6e" x="802.748047"/>
      <use xlink:href="#DejaVuSans-63" x="866.126953"/>
      <use xlink:href="#DejaVuSans-65" x="921.107422"/>
     </g>
    </g>
   </g>
   <g id="matplotlib.axis_2">
    <g id="ytick_1">
     <g id="line2d_19">
      <path d="M 233.287688 578.092825 
L 1172.887688 578.092825 
" clip-path="url(#p8e2b7fcf3c)" style="fill: none; stroke: #cbcbcb"/>
     </g>
     <g id="line2d_20"/>
     <g id="text_11">
      <!-- having_IP_Address -->
      <g transform="translate(100.079875 583.411731)scale(0.14 -0.14)">
       <defs>
        <path id="DejaVuSans-68" d="M 3513 2113 
L 3513 0 
L 2938 0 
L 2938 2094 
Q 2938 2591 2744 2837 
Q 2550 3084 2163 3084 
Q 1697 3084 1428 2787 
Q 1159 2491 1159 1978 
L 1159 0 
L 581 0 
L 581 4863 
L 1159 4863 
L 1159 2956 
Q 1366 3272 1645 3428 
Q 1925 3584 2291 3584 
Q 2894 3584 3203 3211 
Q 3513 2838 3513 2113 
z
" transform="scale(0.015625)"/>
        <path id="DejaVuSans-76" d="M 191 3500 
L 800 3500 
L 1894 563 
L 2988 3500 
L 3597 3500 
L 2284 0 
L 1503 0 
L 191 3500 
z
" transform="scale(0.015625)"/>
        <path id="DejaVuSans-69" d="M 603 3500 
L 1178 3500 
L 1178 0 
L 603 0 
L 603 3500 
z
M 603 4863 
L 1178 4863 
L 1178 4134 
L 603 4134 
L 603 4863 
z
" transform="scale(0.015625)"/>
        <path id="DejaVuSans-67" d="M 2906 1791 
Q 2906 2416 2648 2759 
Q 2391 3103 1925 3103 
Q 1463 3103 1205 2759 
Q 947 2416 947 1791 
Q 947 1169 1205 825 
Q 1463 481 1925 481 
Q 2391 481 2648 825 
Q 2906 1169 2906 1791 
z
M 3481 434 
Q 3481 -459 3084 -895 
Q 2688 -1331 1869 -1331 
Q 1566 -1331 1297 -1286 
Q 1028 -1241 775 -1147 
L 775 -588 
Q 1028 -725 1275 -790 
Q 1522 -856 1778 -856 
Q 2344 -856 2625 -561 
Q 2906 -266 2906 331 
L 2906 616 
Q 2728 306 2450 153 
Q 2172 0 1784 0 
Q 1141 0 747 490 
Q 353 981 353 1791 
Q 353 2603 747 3093 
Q 1141 3584 1784 3584 
Q 2172 3584 2450 3431 
Q 2728 3278 2906 2969 
L 2906 3500 
L 3481 3500 
L 3481 434 
z
" transform="scale(0.015625)"/>
        <path id="DejaVuSans-5f" d="M 3263 -1063 
L 3263 -1509 
L -63 -1509 
L -63 -1063 
L 3263 -1063 
z
" transform="scale(0.015625)"/>
        <path id="DejaVuSans-50" d="M 1259 4147 
L 1259 2394 
L 2053 2394 
Q 2494 2394 2734 2622 
Q 2975 2850 2975 3272 
Q 2975 3691 2734 3919 
Q 2494 4147 2053 4147 
L 1259 4147 
z
M 628 4666 
L 2053 4666 
Q 2838 4666 3239 4311 
Q 3641 3956 3641 3272 
Q 3641 2581 3239 2228 
Q 2838 1875 2053 1875 
L 1259 1875 
L 1259 0 
L 628 0 
L 628 4666 
z
" transform="scale(0.015625)"/>
        <path id="DejaVuSans-41" d="M 2188 4044 
L 1331 1722 
L 3047 1722 
L 2188 4044 
z
M 1831 4666 
L 2547 4666 
L 4325 0 
L 3669 0 
L 3244 1197 
L 1141 1197 
L 716 0 
L 50 0 
L 1831 4666 
z
" transform="scale(0.015625)"/>
        <path id="DejaVuSans-64" d="M 2906 2969 
L 2906 4863 
L 3481 4863 
L 3481 0 
L 2906 0 
L 2906 525 
Q 2725 213 2448 61 
Q 2172 -91 1784 -91 
Q 1150 -91 751 415 
Q 353 922 353 1747 
Q 353 2572 751 3078 
Q 1150 3584 1784 3584 
Q 2172 3584 2448 3432 
Q 2725 3281 2906 2969 
z
M 947 1747 
Q 947 1113 1208 752 
Q 1469 391 1925 391 
Q 2381 391 2643 752 
Q 2906 1113 2906 1747 
Q 2906 2381 2643 2742 
Q 2381 3103 1925 3103 
Q 1469 3103 1208 2742 
Q 947 2381 947 1747 
z
" transform="scale(0.015625)"/>
        <path id="DejaVuSans-73" d="M 2834 3397 
L 2834 2853 
Q 2591 2978 2328 3040 
Q 2066 3103 1784 3103 
Q 1356 3103 1142 2972 
Q 928 2841 928 2578 
Q 928 2378 1081 2264 
Q 1234 2150 1697 2047 
L 1894 2003 
Q 2506 1872 2764 1633 
Q 3022 1394 3022 966 
Q 3022 478 2636 193 
Q 2250 -91 1575 -91 
Q 1294 -91 989 -36 
Q 684 19 347 128 
L 347 722 
Q 666 556 975 473 
Q 1284 391 1588 391 
Q 1994 391 2212 530 
Q 2431 669 2431 922 
Q 2431 1156 2273 1281 
Q 2116 1406 1581 1522 
L 1381 1569 
Q 847 1681 609 1914 
Q 372 2147 372 2553 
Q 372 3047 722 3315 
Q 1072 3584 1716 3584 
Q 2034 3584 2315 3537 
Q 2597 3491 2834 3397 
z
" transform="scale(0.015625)"/>
       </defs>
       <use xlink:href="#DejaVuSans-68"/>
       <use xlink:href="#DejaVuSans-61" x="63.378906"/>
       <use xlink:href="#DejaVuSans-76" x="124.658203"/>
       <use xlink:href="#DejaVuSans-69" x="183.837891"/>
       <use xlink:href="#DejaVuSans-6e" x="211.621094"/>
       <use xlink:href="#DejaVuSans-67" x="275"/>
       <use xlink:href="#DejaVuSans-5f" x="338.476562"/>
       <use xlink:href="#DejaVuSans-49" x="388.476562"/>
       <use xlink:href="#DejaVuSans-50" x="417.96875"/>
       <use xlink:href="#DejaVuSans-5f" x="478.271484"/>
       <use xlink:href="#DejaVuSans-41" x="528.271484"/>
       <use xlink:href="#DejaVuSans-64" x="594.929688"/>
       <use xlink:href="#DejaVuSans-64" x="658.40625"/>
       <use xlink:href="#DejaVuSans-72" x="721.882812"/>
       <use xlink:href="#DejaVuSans-65" x="760.746094"/>
       <use xlink:href="#DejaVuSans-73" x="822.269531"/>
       <use xlink:href="#DejaVuSans-73" x="874.369141"/>
      </g>
     </g>
    </g>
    <g id="ytick_2">
     <g id="line2d_21">
      <path d="M 233.287688 560.301488 
L 1172.887688 560.301488 
" clip-path="url(#p8e2b7fcf3c)" style="fill: none; stroke: #cbcbcb"/>
     </g>
     <g id="line2d_22"/>
     <g id="text_12">
      <!-- URL_Length -->
      <g transform="translate(146.72175 565.620395)scale(0.14 -0.14)">
       <defs>
        <path id="DejaVuSans-55" d="M 556 4666 
L 1191 4666 
L 1191 1831 
Q 1191 1081 1462 751 
Q 1734 422 2344 422 
Q 2950 422 3222 751 
Q 3494 1081 3494 1831 
L 3494 4666 
L 4128 4666 
L 4128 1753 
Q 4128 841 3676 375 
Q 3225 -91 2344 -91 
Q 1459 -91 1007 375 
Q 556 841 556 1753 
L 556 4666 
z
" transform="scale(0.015625)"/>
        <path id="DejaVuSans-52" d="M 2841 2188 
Q 3044 2119 3236 1894 
Q 3428 1669 3622 1275 
L 4263 0 
L 3584 0 
L 2988 1197 
Q 2756 1666 2539 1819 
Q 2322 1972 1947 1972 
L 1259 1972 
L 1259 0 
L 628 0 
L 628 4666 
L 2053 4666 
Q 2853 4666 3247 4331 
Q 3641 3997 3641 3322 
Q 3641 2881 3436 2590 
Q 3231 2300 2841 2188 
z
M 1259 4147 
L 1259 2491 
L 2053 2491 
Q 2509 2491 2742 2702 
Q 2975 2913 2975 3322 
Q 2975 3731 2742 3939 
Q 2509 4147 2053 4147 
L 1259 4147 
z
" transform="scale(0.015625)"/>
        <path id="DejaVuSans-4c" d="M 628 4666 
L 1259 4666 
L 1259 531 
L 3531 531 
L 3531 0 
L 628 0 
L 628 4666 
z
" transform="scale(0.015625)"/>
       </defs>
       <use xlink:href="#DejaVuSans-55"/>
       <use xlink:href="#DejaVuSans-52" x="73.193359"/>
       <use xlink:href="#DejaVuSans-4c" x="142.675781"/>
       <use xlink:href="#DejaVuSans-5f" x="198.388672"/>
       <use xlink:href="#DejaVuSans-4c" x="248.388672"/>
       <use xlink:href="#DejaVuSans-65" x="302.351562"/>
       <use xlink:href="#DejaVuSans-6e" x="363.875"/>
       <use xlink:href="#DejaVuSans-67" x="427.253906"/>
       <use xlink:href="#DejaVuSans-74" x="490.730469"/>
       <use xlink:href="#DejaVuSans-68" x="529.939453"/>
      </g>
     </g>
    </g>
    <g id="ytick_3">
     <g id="line2d_23">
      <path d="M 233.287688 542.510152 
L 1172.887688 542.510152 
" clip-path="url(#p8e2b7fcf3c)" style="fill: none; stroke: #cbcbcb"/>
     </g>
     <g id="line2d_24"/>
     <g id="text_13">
      <!-- Shortining_Service -->
      <g transform="translate(99.0605 547.829059)scale(0.14 -0.14)">
       <defs>
        <path id="DejaVuSans-53" d="M 3425 4513 
L 3425 3897 
Q 3066 4069 2747 4153 
Q 2428 4238 2131 4238 
Q 1616 4238 1336 4038 
Q 1056 3838 1056 3469 
Q 1056 3159 1242 3001 
Q 1428 2844 1947 2747 
L 2328 2669 
Q 3034 2534 3370 2195 
Q 3706 1856 3706 1288 
Q 3706 609 3251 259 
Q 2797 -91 1919 -91 
Q 1588 -91 1214 -16 
Q 841 59 441 206 
L 441 856 
Q 825 641 1194 531 
Q 1563 422 1919 422 
Q 2459 422 2753 634 
Q 3047 847 3047 1241 
Q 3047 1584 2836 1778 
Q 2625 1972 2144 2069 
L 1759 2144 
Q 1053 2284 737 2584 
Q 422 2884 422 3419 
Q 422 4038 858 4394 
Q 1294 4750 2059 4750 
Q 2388 4750 2728 4690 
Q 3069 4631 3425 4513 
z
" transform="scale(0.015625)"/>
       </defs>
       <use xlink:href="#DejaVuSans-53"/>
       <use xlink:href="#DejaVuSans-68" x="63.476562"/>
       <use xlink:href="#DejaVuSans-6f" x="126.855469"/>
       <use xlink:href="#DejaVuSans-72" x="188.037109"/>
       <use xlink:href="#DejaVuSans-74" x="229.150391"/>
       <use xlink:href="#DejaVuSans-69" x="268.359375"/>
       <use xlink:href="#DejaVuSans-6e" x="296.142578"/>
       <use xlink:href="#DejaVuSans-69" x="359.521484"/>
       <use xlink:href="#DejaVuSans-6e" x="387.304688"/>
       <use xlink:href="#DejaVuSans-67" x="450.683594"/>
       <use xlink:href="#DejaVuSans-5f" x="514.160156"/>
       <use xlink:href="#DejaVuSans-53" x="564.160156"/>
       <use xlink:href="#DejaVuSans-65" x="627.636719"/>
       <use xlink:href="#DejaVuSans-72" x="689.160156"/>
       <use xlink:href="#DejaVuSans-76" x="730.273438"/>
       <use xlink:href="#DejaVuSans-69" x="789.453125"/>
       <use xlink:href="#DejaVuSans-63" x="817.236328"/>
       <use xlink:href="#DejaVuSans-65" x="872.216797"/>
      </g>
     </g>
    </g>
    <g id="ytick_4">
     <g id="line2d_25">
      <path d="M 233.287688 524.718816 
L 1172.887688 524.718816 
" clip-path="url(#p8e2b7fcf3c)" style="fill: none; stroke: #cbcbcb"/>
     </g>
     <g id="line2d_26"/>
     <g id="text_14">
      <!-- having_At_Symbol -->
      <g transform="translate(101.425187 530.037722)scale(0.14 -0.14)">
       <defs>
        <path id="DejaVuSans-79" d="M 2059 -325 
Q 1816 -950 1584 -1140 
Q 1353 -1331 966 -1331 
L 506 -1331 
L 506 -850 
L 844 -850 
Q 1081 -850 1212 -737 
Q 1344 -625 1503 -206 
L 1606 56 
L 191 3500 
L 800 3500 
L 1894 763 
L 2988 3500 
L 3597 3500 
L 2059 -325 
z
" transform="scale(0.015625)"/>
        <path id="DejaVuSans-62" d="M 3116 1747 
Q 3116 2381 2855 2742 
Q 2594 3103 2138 3103 
Q 1681 3103 1420 2742 
Q 1159 2381 1159 1747 
Q 1159 1113 1420 752 
Q 1681 391 2138 391 
Q 2594 391 2855 752 
Q 3116 1113 3116 1747 
z
M 1159 2969 
Q 1341 3281 1617 3432 
Q 1894 3584 2278 3584 
Q 2916 3584 3314 3078 
Q 3713 2572 3713 1747 
Q 3713 922 3314 415 
Q 2916 -91 2278 -91 
Q 1894 -91 1617 61 
Q 1341 213 1159 525 
L 1159 0 
L 581 0 
L 581 4863 
L 1159 4863 
L 1159 2969 
z
" transform="scale(0.015625)"/>
        <path id="DejaVuSans-6c" d="M 603 4863 
L 1178 4863 
L 1178 0 
L 603 0 
L 603 4863 
z
" transform="scale(0.015625)"/>
       </defs>
       <use xlink:href="#DejaVuSans-68"/>
       <use xlink:href="#DejaVuSans-61" x="63.378906"/>
       <use xlink:href="#DejaVuSans-76" x="124.658203"/>
       <use xlink:href="#DejaVuSans-69" x="183.837891"/>
       <use xlink:href="#DejaVuSans-6e" x="211.621094"/>
       <use xlink:href="#DejaVuSans-67" x="275"/>
       <use xlink:href="#DejaVuSans-5f" x="338.476562"/>
       <use xlink:href="#DejaVuSans-41" x="388.476562"/>
       <use xlink:href="#DejaVuSans-74" x="455.134766"/>
       <use xlink:href="#DejaVuSans-5f" x="494.34375"/>
       <use xlink:href="#DejaVuSans-53" x="544.34375"/>
       <use xlink:href="#DejaVuSans-79" x="607.820312"/>
       <use xlink:href="#DejaVuSans-6d" x="667"/>
       <use xlink:href="#DejaVuSans-62" x="764.412109"/>
       <use xlink:href="#DejaVuSans-6f" x="827.888672"/>
       <use xlink:href="#DejaVuSans-6c" x="889.070312"/>
      </g>
     </g>
    </g>
    <g id="ytick_5">
     <g id="line2d_27">
      <path d="M 233.287688 506.92748 
L 1172.887688 506.92748 
" clip-path="url(#p8e2b7fcf3c)" style="fill: none; stroke: #cbcbcb"/>
     </g>
     <g id="line2d_28"/>
     <g id="text_15">
      <!-- double_slash_redirecting -->
      <g transform="translate(56.419562 512.246386)scale(0.14 -0.14)">
       <use xlink:href="#DejaVuSans-64"/>
       <use xlink:href="#DejaVuSans-6f" x="63.476562"/>
       <use xlink:href="#DejaVuSans-75" x="124.658203"/>
       <use xlink:href="#DejaVuSans-62" x="188.037109"/>
       <use xlink:href="#DejaVuSans-6c" x="251.513672"/>
       <use xlink:href="#DejaVuSans-65" x="279.296875"/>
       <use xlink:href="#DejaVuSans-5f" x="340.820312"/>
       <use xlink:href="#DejaVuSans-73" x="390.820312"/>
       <use xlink:href="#DejaVuSans-6c" x="442.919922"/>
       <use xlink:href="#DejaVuSans-61" x="470.703125"/>
       <use xlink:href="#DejaVuSans-73" x="531.982422"/>
       <use xlink:href="#DejaVuSans-68" x="584.082031"/>
       <use xlink:href="#DejaVuSans-5f" x="647.460938"/>
       <use xlink:href="#DejaVuSans-72" x="697.460938"/>
       <use xlink:href="#DejaVuSans-65" x="736.324219"/>
       <use xlink:href="#DejaVuSans-64" x="797.847656"/>
       <use xlink:href="#DejaVuSans-69" x="861.324219"/>
       <use xlink:href="#DejaVuSans-72" x="889.107422"/>
       <use xlink:href="#DejaVuSans-65" x="927.970703"/>
       <use xlink:href="#DejaVuSans-63" x="989.494141"/>
       <use xlink:href="#DejaVuSans-74" x="1044.474609"/>
       <use xlink:href="#DejaVuSans-69" x="1083.683594"/>
       <use xlink:href="#DejaVuSans-6e" x="1111.466797"/>
       <use xlink:href="#DejaVuSans-67" x="1174.845703"/>
      </g>
     </g>
    </g>
    <g id="ytick_6">
     <g id="line2d_29">
      <path d="M 233.287688 489.136144 
L 1172.887688 489.136144 
" clip-path="url(#p8e2b7fcf3c)" style="fill: none; stroke: #cbcbcb"/>
     </g>
     <g id="line2d_30"/>
     <g id="text_16">
      <!-- Prefix_Suffix -->
      <g transform="translate(143.639563 494.45505)scale(0.14 -0.14)">
       <defs>
        <path id="DejaVuSans-66" d="M 2375 4863 
L 2375 4384 
L 1825 4384 
Q 1516 4384 1395 4259 
Q 1275 4134 1275 3809 
L 1275 3500 
L 2222 3500 
L 2222 3053 
L 1275 3053 
L 1275 0 
L 697 0 
L 697 3053 
L 147 3053 
L 147 3500 
L 697 3500 
L 697 3744 
Q 697 4328 969 4595 
Q 1241 4863 1831 4863 
L 2375 4863 
z
" transform="scale(0.015625)"/>
        <path id="DejaVuSans-78" d="M 3513 3500 
L 2247 1797 
L 3578 0 
L 2900 0 
L 1881 1375 
L 863 0 
L 184 0 
L 1544 1831 
L 300 3500 
L 978 3500 
L 1906 2253 
L 2834 3500 
L 3513 3500 
z
" transform="scale(0.015625)"/>
       </defs>
       <use xlink:href="#DejaVuSans-50"/>
       <use xlink:href="#DejaVuSans-72" x="58.552734"/>
       <use xlink:href="#DejaVuSans-65" x="97.416016"/>
       <use xlink:href="#DejaVuSans-66" x="158.939453"/>
       <use xlink:href="#DejaVuSans-69" x="194.144531"/>
       <use xlink:href="#DejaVuSans-78" x="221.927734"/>
       <use xlink:href="#DejaVuSans-5f" x="281.107422"/>
       <use xlink:href="#DejaVuSans-53" x="331.107422"/>
       <use xlink:href="#DejaVuSans-75" x="394.583984"/>
       <use xlink:href="#DejaVuSans-66" x="457.962891"/>
       <use xlink:href="#DejaVuSans-66" x="493.167969"/>
       <use xlink:href="#DejaVuSans-69" x="528.373047"/>
       <use xlink:href="#DejaVuSans-78" x="556.15625"/>
      </g>
     </g>
    </g>
    <g id="ytick_7">
     <g id="line2d_31">
      <path d="M 233.287688 471.344808 
L 1172.887688 471.344808 
" clip-path="url(#p8e2b7fcf3c)" style="fill: none; stroke: #cbcbcb"/>
     </g>
     <g id="line2d_32"/>
     <g id="text_17">
      <!-- having_Sub_Domain -->
      <g transform="translate(87.427375 476.663714)scale(0.14 -0.14)">
       <defs>
        <path id="DejaVuSans-44" d="M 1259 4147 
L 1259 519 
L 2022 519 
Q 2988 519 3436 956 
Q 3884 1394 3884 2338 
Q 3884 3275 3436 3711 
Q 2988 4147 2022 4147 
L 1259 4147 
z
M 628 4666 
L 1925 4666 
Q 3281 4666 3915 4102 
Q 4550 3538 4550 2338 
Q 4550 1131 3912 565 
Q 3275 0 1925 0 
L 628 0 
L 628 4666 
z
" transform="scale(0.015625)"/>
       </defs>
       <use xlink:href="#DejaVuSans-68"/>
       <use xlink:href="#DejaVuSans-61" x="63.378906"/>
       <use xlink:href="#DejaVuSans-76" x="124.658203"/>
       <use xlink:href="#DejaVuSans-69" x="183.837891"/>
       <use xlink:href="#DejaVuSans-6e" x="211.621094"/>
       <use xlink:href="#DejaVuSans-67" x="275"/>
       <use xlink:href="#DejaVuSans-5f" x="338.476562"/>
       <use xlink:href="#DejaVuSans-53" x="388.476562"/>
       <use xlink:href="#DejaVuSans-75" x="451.953125"/>
       <use xlink:href="#DejaVuSans-62" x="515.332031"/>
       <use xlink:href="#DejaVuSans-5f" x="578.808594"/>
       <use xlink:href="#DejaVuSans-44" x="628.808594"/>
       <use xlink:href="#DejaVuSans-6f" x="705.810547"/>
       <use xlink:href="#DejaVuSans-6d" x="766.992188"/>
       <use xlink:href="#DejaVuSans-61" x="864.404297"/>
       <use xlink:href="#DejaVuSans-69" x="925.683594"/>
       <use xlink:href="#DejaVuSans-6e" x="953.466797"/>
      </g>
     </g>
    </g>
    <g id="ytick_8">
     <g id="line2d_33">
      <path d="M 233.287688 453.553471 
L 1172.887688 453.553471 
" clip-path="url(#p8e2b7fcf3c)" style="fill: none; stroke: #cbcbcb"/>
     </g>
     <g id="line2d_34"/>
     <g id="text_18">
      <!-- SSLfinal_State -->
      <g transform="translate(129.993938 458.872378)scale(0.14 -0.14)">
       <use xlink:href="#DejaVuSans-53"/>
       <use xlink:href="#DejaVuSans-53" x="63.476562"/>
       <use xlink:href="#DejaVuSans-4c" x="126.953125"/>
       <use xlink:href="#DejaVuSans-66" x="182.666016"/>
       <use xlink:href="#DejaVuSans-69" x="217.871094"/>
       <use xlink:href="#DejaVuSans-6e" x="245.654297"/>
       <use xlink:href="#DejaVuSans-61" x="309.033203"/>
       <use xlink:href="#DejaVuSans-6c" x="370.3125"/>
       <use xlink:href="#DejaVuSans-5f" x="398.095703"/>
       <use xlink:href="#DejaVuSans-53" x="448.095703"/>
       <use xlink:href="#DejaVuSans-74" x="511.572266"/>
       <use xlink:href="#DejaVuSans-61" x="550.78125"/>
       <use xlink:href="#DejaVuSans-74" x="612.060547"/>
       <use xlink:href="#DejaVuSans-65" x="651.269531"/>
      </g>
     </g>
    </g>
    <g id="ytick_9">
     <g id="line2d_35">
      <path d="M 233.287688 435.762135 
L 1172.887688 435.762135 
" clip-path="url(#p8e2b7fcf3c)" style="fill: none; stroke: #cbcbcb"/>
     </g>
     <g id="line2d_36"/>
     <g id="text_19">
      <!-- Domain_registeration_length -->
      <g transform="translate(27.45925 441.081041)scale(0.14 -0.14)">
       <use xlink:href="#DejaVuSans-44"/>
       <use xlink:href="#DejaVuSans-6f" x="77.001953"/>
       <use xlink:href="#DejaVuSans-6d" x="138.183594"/>
       <use xlink:href="#DejaVuSans-61" x="235.595703"/>
       <use xlink:href="#DejaVuSans-69" x="296.875"/>
       <use xlink:href="#DejaVuSans-6e" x="324.658203"/>
       <use xlink:href="#DejaVuSans-5f" x="388.037109"/>
       <use xlink:href="#DejaVuSans-72" x="438.037109"/>
       <use xlink:href="#DejaVuSans-65" x="476.900391"/>
       <use xlink:href="#DejaVuSans-67" x="538.423828"/>
       <use xlink:href="#DejaVuSans-69" x="601.900391"/>
       <use xlink:href="#DejaVuSans-73" x="629.683594"/>
       <use xlink:href="#DejaVuSans-74" x="681.783203"/>
       <use xlink:href="#DejaVuSans-65" x="720.992188"/>
       <use xlink:href="#DejaVuSans-72" x="782.515625"/>
       <use xlink:href="#DejaVuSans-61" x="823.628906"/>
       <use xlink:href="#DejaVuSans-74" x="884.908203"/>
       <use xlink:href="#DejaVuSans-69" x="924.117188"/>
       <use xlink:href="#DejaVuSans-6f" x="951.900391"/>
       <use xlink:href="#DejaVuSans-6e" x="1013.082031"/>
       <use xlink:href="#DejaVuSans-5f" x="1076.460938"/>
       <use xlink:href="#DejaVuSans-6c" x="1126.460938"/>
       <use xlink:href="#DejaVuSans-65" x="1154.244141"/>
       <use xlink:href="#DejaVuSans-6e" x="1215.767578"/>
       <use xlink:href="#DejaVuSans-67" x="1279.146484"/>
       <use xlink:href="#DejaVuSans-74" x="1342.623047"/>
       <use xlink:href="#DejaVuSans-68" x="1381.832031"/>
      </g>
     </g>
    </g>
    <g id="ytick_10">
     <g id="line2d_37">
      <path d="M 233.287688 417.970799 
L 1172.887688 417.970799 
" clip-path="url(#p8e2b7fcf3c)" style="fill: none; stroke: #cbcbcb"/>
     </g>
     <g id="line2d_38"/>
     <g id="text_20">
      <!-- Favicon -->
      <g transform="translate(177.121438 423.289705)scale(0.14 -0.14)">
       <use xlink:href="#DejaVuSans-46"/>
       <use xlink:href="#DejaVuSans-61" x="48.394531"/>
       <use xlink:href="#DejaVuSans-76" x="109.673828"/>
       <use xlink:href="#DejaVuSans-69" x="168.853516"/>
       <use xlink:href="#DejaVuSans-63" x="196.636719"/>
       <use xlink:href="#DejaVuSans-6f" x="251.617188"/>
       <use xlink:href="#DejaVuSans-6e" x="312.798828"/>
      </g>
     </g>
    </g>
    <g id="ytick_11">
     <g id="line2d_39">
      <path d="M 233.287688 400.179463 
L 1172.887688 400.179463 
" clip-path="url(#p8e2b7fcf3c)" style="fill: none; stroke: #cbcbcb"/>
     </g>
     <g id="line2d_40"/>
     <g id="text_21">
      <!-- port -->
      <g transform="translate(201.089875 405.498369)scale(0.14 -0.14)">
       <use xlink:href="#DejaVuSans-70"/>
       <use xlink:href="#DejaVuSans-6f" x="63.476562"/>
       <use xlink:href="#DejaVuSans-72" x="124.658203"/>
       <use xlink:href="#DejaVuSans-74" x="165.771484"/>
      </g>
     </g>
    </g>
    <g id="ytick_12">
     <g id="line2d_41">
      <path d="M 233.287688 382.388127 
L 1172.887688 382.388127 
" clip-path="url(#p8e2b7fcf3c)" style="fill: none; stroke: #cbcbcb"/>
     </g>
     <g id="line2d_42"/>
     <g id="text_22">
      <!-- HTTPS_token -->
      <g transform="translate(138.932063 387.707033)scale(0.14 -0.14)">
       <defs>
        <path id="DejaVuSans-48" d="M 628 4666 
L 1259 4666 
L 1259 2753 
L 3553 2753 
L 3553 4666 
L 4184 4666 
L 4184 0 
L 3553 0 
L 3553 2222 
L 1259 2222 
L 1259 0 
L 628 0 
L 628 4666 
z
" transform="scale(0.015625)"/>
        <path id="DejaVuSans-54" d="M -19 4666 
L 3928 4666 
L 3928 4134 
L 2272 4134 
L 2272 0 
L 1638 0 
L 1638 4134 
L -19 4134 
L -19 4666 
z
" transform="scale(0.015625)"/>
        <path id="DejaVuSans-6b" d="M 581 4863 
L 1159 4863 
L 1159 1991 
L 2875 3500 
L 3609 3500 
L 1753 1863 
L 3688 0 
L 2938 0 
L 1159 1709 
L 1159 0 
L 581 0 
L 581 4863 
z
" transform="scale(0.015625)"/>
       </defs>
       <use xlink:href="#DejaVuSans-48"/>
       <use xlink:href="#DejaVuSans-54" x="75.195312"/>
       <use xlink:href="#DejaVuSans-54" x="134.529297"/>
       <use xlink:href="#DejaVuSans-50" x="195.613281"/>
       <use xlink:href="#DejaVuSans-53" x="255.916016"/>
       <use xlink:href="#DejaVuSans-5f" x="319.392578"/>
       <use xlink:href="#DejaVuSans-74" x="369.392578"/>
       <use xlink:href="#DejaVuSans-6f" x="408.601562"/>
       <use xlink:href="#DejaVuSans-6b" x="469.783203"/>
       <use xlink:href="#DejaVuSans-65" x="524.068359"/>
       <use xlink:href="#DejaVuSans-6e" x="585.591797"/>
      </g>
     </g>
    </g>
    <g id="ytick_13">
     <g id="line2d_43">
      <path d="M 233.287688 364.59679 
L 1172.887688 364.59679 
" clip-path="url(#p8e2b7fcf3c)" style="fill: none; stroke: #cbcbcb"/>
     </g>
     <g id="line2d_44"/>
     <g id="text_23">
      <!-- Request_URL -->
      <g transform="translate(138.144563 369.721009)scale(0.14 -0.14)">
       <defs>
        <path id="DejaVuSans-71" d="M 947 1747 
Q 947 1113 1208 752 
Q 1469 391 1925 391 
Q 2381 391 2643 752 
Q 2906 1113 2906 1747 
Q 2906 2381 2643 2742 
Q 2381 3103 1925 3103 
Q 1469 3103 1208 2742 
Q 947 2381 947 1747 
z
M 2906 525 
Q 2725 213 2448 61 
Q 2172 -91 1784 -91 
Q 1150 -91 751 415 
Q 353 922 353 1747 
Q 353 2572 751 3078 
Q 1150 3584 1784 3584 
Q 2172 3584 2448 3432 
Q 2725 3281 2906 2969 
L 2906 3500 
L 3481 3500 
L 3481 -1331 
L 2906 -1331 
L 2906 525 
z
" transform="scale(0.015625)"/>
       </defs>
       <use xlink:href="#DejaVuSans-52"/>
       <use xlink:href="#DejaVuSans-65" x="64.982422"/>
       <use xlink:href="#DejaVuSans-71" x="126.505859"/>
       <use xlink:href="#DejaVuSans-75" x="189.982422"/>
       <use xlink:href="#DejaVuSans-65" x="253.361328"/>
       <use xlink:href="#DejaVuSans-73" x="314.884766"/>
       <use xlink:href="#DejaVuSans-74" x="366.984375"/>
       <use xlink:href="#DejaVuSans-5f" x="406.193359"/>
       <use xlink:href="#DejaVuSans-55" x="456.193359"/>
       <use xlink:href="#DejaVuSans-52" x="529.386719"/>
       <use xlink:href="#DejaVuSans-4c" x="598.869141"/>
      </g>
     </g>
    </g>
    <g id="ytick_14">
     <g id="line2d_45">
      <path d="M 233.287688 346.805454 
L 1172.887688 346.805454 
" clip-path="url(#p8e2b7fcf3c)" style="fill: none; stroke: #cbcbcb"/>
     </g>
     <g id="line2d_46"/>
     <g id="text_24">
      <!-- URL_of_Anchor -->
      <g transform="translate(125.177062 352.124361)scale(0.14 -0.14)">
       <use xlink:href="#DejaVuSans-55"/>
       <use xlink:href="#DejaVuSans-52" x="73.193359"/>
       <use xlink:href="#DejaVuSans-4c" x="142.675781"/>
       <use xlink:href="#DejaVuSans-5f" x="198.388672"/>
       <use xlink:href="#DejaVuSans-6f" x="248.388672"/>
       <use xlink:href="#DejaVuSans-66" x="309.570312"/>
       <use xlink:href="#DejaVuSans-5f" x="344.775391"/>
       <use xlink:href="#DejaVuSans-41" x="394.775391"/>
       <use xlink:href="#DejaVuSans-6e" x="463.183594"/>
       <use xlink:href="#DejaVuSans-63" x="526.5625"/>
       <use xlink:href="#DejaVuSans-68" x="581.542969"/>
       <use xlink:href="#DejaVuSans-6f" x="644.921875"/>
       <use xlink:href="#DejaVuSans-72" x="706.103516"/>
      </g>
     </g>
    </g>
    <g id="ytick_15">
     <g id="line2d_47">
      <path d="M 233.287688 329.014118 
L 1172.887688 329.014118 
" clip-path="url(#p8e2b7fcf3c)" style="fill: none; stroke: #cbcbcb"/>
     </g>
     <g id="line2d_48"/>
     <g id="text_25">
      <!-- Links_in_tags -->
      <g transform="translate(136.814562 334.333024)scale(0.14 -0.14)">
       <use xlink:href="#DejaVuSans-4c"/>
       <use xlink:href="#DejaVuSans-69" x="55.712891"/>
       <use xlink:href="#DejaVuSans-6e" x="83.496094"/>
       <use xlink:href="#DejaVuSans-6b" x="146.875"/>
       <use xlink:href="#DejaVuSans-73" x="204.785156"/>
       <use xlink:href="#DejaVuSans-5f" x="256.884766"/>
       <use xlink:href="#DejaVuSans-69" x="306.884766"/>
       <use xlink:href="#DejaVuSans-6e" x="334.667969"/>
       <use xlink:href="#DejaVuSans-5f" x="398.046875"/>
       <use xlink:href="#DejaVuSans-74" x="448.046875"/>
       <use xlink:href="#DejaVuSans-61" x="487.255859"/>
       <use xlink:href="#DejaVuSans-67" x="548.535156"/>
       <use xlink:href="#DejaVuSans-73" x="612.011719"/>
      </g>
     </g>
    </g>
    <g id="ytick_16">
     <g id="line2d_49">
      <path d="M 233.287688 311.222782 
L 1172.887688 311.222782 
" clip-path="url(#p8e2b7fcf3c)" style="fill: none; stroke: #cbcbcb"/>
     </g>
     <g id="line2d_50"/>
     <g id="text_26">
      <!-- SFH -->
      <g transform="translate(202.31925 316.541688)scale(0.14 -0.14)">
       <use xlink:href="#DejaVuSans-53"/>
       <use xlink:href="#DejaVuSans-46" x="63.476562"/>
       <use xlink:href="#DejaVuSans-48" x="120.996094"/>
      </g>
     </g>
    </g>
    <g id="ytick_17">
     <g id="line2d_51">
      <path d="M 233.287688 293.431446 
L 1172.887688 293.431446 
" clip-path="url(#p8e2b7fcf3c)" style="fill: none; stroke: #cbcbcb"/>
     </g>
     <g id="line2d_52"/>
     <g id="text_27">
      <!-- Submitting_to_email -->
      <g transform="translate(86.322688 298.750352)scale(0.14 -0.14)">
       <use xlink:href="#DejaVuSans-53"/>
       <use xlink:href="#DejaVuSans-75" x="63.476562"/>
       <use xlink:href="#DejaVuSans-62" x="126.855469"/>
       <use xlink:href="#DejaVuSans-6d" x="190.332031"/>
       <use xlink:href="#DejaVuSans-69" x="287.744141"/>
       <use xlink:href="#DejaVuSans-74" x="315.527344"/>
       <use xlink:href="#DejaVuSans-74" x="354.736328"/>
       <use xlink:href="#DejaVuSans-69" x="393.945312"/>
       <use xlink:href="#DejaVuSans-6e" x="421.728516"/>
       <use xlink:href="#DejaVuSans-67" x="485.107422"/>
       <use xlink:href="#DejaVuSans-5f" x="548.583984"/>
       <use xlink:href="#DejaVuSans-74" x="598.583984"/>
       <use xlink:href="#DejaVuSans-6f" x="637.792969"/>
       <use xlink:href="#DejaVuSans-5f" x="698.974609"/>
       <use xlink:href="#DejaVuSans-65" x="748.974609"/>
       <use xlink:href="#DejaVuSans-6d" x="810.498047"/>
       <use xlink:href="#DejaVuSans-61" x="907.910156"/>
       <use xlink:href="#DejaVuSans-69" x="969.189453"/>
       <use xlink:href="#DejaVuSans-6c" x="996.972656"/>
      </g>
     </g>
    </g>
    <g id="ytick_18">
     <g id="line2d_53">
      <path d="M 233.287688 275.64011 
L 1172.887688 275.64011 
" clip-path="url(#p8e2b7fcf3c)" style="fill: none; stroke: #cbcbcb"/>
     </g>
     <g id="line2d_54"/>
     <g id="text_28">
      <!-- Abnormal_URL -->
      <g transform="translate(127.493625 280.959016)scale(0.14 -0.14)">
       <use xlink:href="#DejaVuSans-41"/>
       <use xlink:href="#DejaVuSans-62" x="68.408203"/>
       <use xlink:href="#DejaVuSans-6e" x="131.884766"/>
       <use xlink:href="#DejaVuSans-6f" x="195.263672"/>
       <use xlink:href="#DejaVuSans-72" x="256.445312"/>
       <use xlink:href="#DejaVuSans-6d" x="295.808594"/>
       <use xlink:href="#DejaVuSans-61" x="393.220703"/>
       <use xlink:href="#DejaVuSans-6c" x="454.5"/>
       <use xlink:href="#DejaVuSans-5f" x="482.283203"/>
       <use xlink:href="#DejaVuSans-55" x="532.283203"/>
       <use xlink:href="#DejaVuSans-52" x="605.476562"/>
       <use xlink:href="#DejaVuSans-4c" x="674.958984"/>
      </g>
     </g>
    </g>
    <g id="ytick_19">
     <g id="line2d_55">
      <path d="M 233.287688 257.848773 
L 1172.887688 257.848773 
" clip-path="url(#p8e2b7fcf3c)" style="fill: none; stroke: #cbcbcb"/>
     </g>
     <g id="line2d_56"/>
     <g id="text_29">
      <!-- Redirect -->
      <g transform="translate(172.057375 263.16768)scale(0.14 -0.14)">
       <use xlink:href="#DejaVuSans-52"/>
       <use xlink:href="#DejaVuSans-65" x="64.982422"/>
       <use xlink:href="#DejaVuSans-64" x="126.505859"/>
       <use xlink:href="#DejaVuSans-69" x="189.982422"/>
       <use xlink:href="#DejaVuSans-72" x="217.765625"/>
       <use xlink:href="#DejaVuSans-65" x="256.628906"/>
       <use xlink:href="#DejaVuSans-63" x="318.152344"/>
       <use xlink:href="#DejaVuSans-74" x="373.132812"/>
      </g>
     </g>
    </g>
    <g id="ytick_20">
     <g id="line2d_57">
      <path d="M 233.287688 240.057437 
L 1172.887688 240.057437 
" clip-path="url(#p8e2b7fcf3c)" style="fill: none; stroke: #cbcbcb"/>
     </g>
     <g id="line2d_58"/>
     <g id="text_30">
      <!-- on_mouseover -->
      <g transform="translate(127.143625 245.181656)scale(0.14 -0.14)">
       <use xlink:href="#DejaVuSans-6f"/>
       <use xlink:href="#DejaVuSans-6e" x="61.181641"/>
       <use xlink:href="#DejaVuSans-5f" x="124.560547"/>
       <use xlink:href="#DejaVuSans-6d" x="174.560547"/>
       <use xlink:href="#DejaVuSans-6f" x="271.972656"/>
       <use xlink:href="#DejaVuSans-75" x="333.154297"/>
       <use xlink:href="#DejaVuSans-73" x="396.533203"/>
       <use xlink:href="#DejaVuSans-65" x="448.632812"/>
       <use xlink:href="#DejaVuSans-6f" x="510.15625"/>
       <use xlink:href="#DejaVuSans-76" x="571.337891"/>
       <use xlink:href="#DejaVuSans-65" x="630.517578"/>
       <use xlink:href="#DejaVuSans-72" x="692.041016"/>
      </g>
     </g>
    </g>
    <g id="ytick_21">
     <g id="line2d_59">
      <path d="M 233.287688 222.266101 
L 1172.887688 222.266101 
" clip-path="url(#p8e2b7fcf3c)" style="fill: none; stroke: #cbcbcb"/>
     </g>
     <g id="line2d_60"/>
     <g id="text_31">
      <!-- RightClick -->
      <g transform="translate(159.562375 227.585007)scale(0.14 -0.14)">
       <defs>
        <path id="DejaVuSans-43" d="M 4122 4306 
L 4122 3641 
Q 3803 3938 3442 4084 
Q 3081 4231 2675 4231 
Q 1875 4231 1450 3742 
Q 1025 3253 1025 2328 
Q 1025 1406 1450 917 
Q 1875 428 2675 428 
Q 3081 428 3442 575 
Q 3803 722 4122 1019 
L 4122 359 
Q 3791 134 3420 21 
Q 3050 -91 2638 -91 
Q 1578 -91 968 557 
Q 359 1206 359 2328 
Q 359 3453 968 4101 
Q 1578 4750 2638 4750 
Q 3056 4750 3426 4639 
Q 3797 4528 4122 4306 
z
" transform="scale(0.015625)"/>
       </defs>
       <use xlink:href="#DejaVuSans-52"/>
       <use xlink:href="#DejaVuSans-69" x="69.482422"/>
       <use xlink:href="#DejaVuSans-67" x="97.265625"/>
       <use xlink:href="#DejaVuSans-68" x="160.742188"/>
       <use xlink:href="#DejaVuSans-74" x="224.121094"/>
       <use xlink:href="#DejaVuSans-43" x="263.330078"/>
       <use xlink:href="#DejaVuSans-6c" x="333.154297"/>
       <use xlink:href="#DejaVuSans-69" x="360.9375"/>
       <use xlink:href="#DejaVuSans-63" x="388.720703"/>
       <use xlink:href="#DejaVuSans-6b" x="443.701172"/>
      </g>
     </g>
    </g>
    <g id="ytick_22">
     <g id="line2d_61">
      <path d="M 233.287688 204.474765 
L 1172.887688 204.474765 
" clip-path="url(#p8e2b7fcf3c)" style="fill: none; stroke: #cbcbcb"/>
     </g>
     <g id="line2d_62"/>
     <g id="text_32">
      <!-- popUpWidnow -->
      <g transform="translate(129.118938 209.793671)scale(0.14 -0.14)">
       <defs>
        <path id="DejaVuSans-57" d="M 213 4666 
L 850 4666 
L 1831 722 
L 2809 4666 
L 3519 4666 
L 4500 722 
L 5478 4666 
L 6119 4666 
L 4947 0 
L 4153 0 
L 3169 4050 
L 2175 0 
L 1381 0 
L 213 4666 
z
" transform="scale(0.015625)"/>
        <path id="DejaVuSans-77" d="M 269 3500 
L 844 3500 
L 1563 769 
L 2278 3500 
L 2956 3500 
L 3675 769 
L 4391 3500 
L 4966 3500 
L 4050 0 
L 3372 0 
L 2619 2869 
L 1863 0 
L 1184 0 
L 269 3500 
z
" transform="scale(0.015625)"/>
       </defs>
       <use xlink:href="#DejaVuSans-70"/>
       <use xlink:href="#DejaVuSans-6f" x="63.476562"/>
       <use xlink:href="#DejaVuSans-70" x="124.658203"/>
       <use xlink:href="#DejaVuSans-55" x="188.134766"/>
       <use xlink:href="#DejaVuSans-70" x="261.328125"/>
       <use xlink:href="#DejaVuSans-57" x="324.804688"/>
       <use xlink:href="#DejaVuSans-69" x="421.431641"/>
       <use xlink:href="#DejaVuSans-64" x="449.214844"/>
       <use xlink:href="#DejaVuSans-6e" x="512.691406"/>
       <use xlink:href="#DejaVuSans-6f" x="576.070312"/>
       <use xlink:href="#DejaVuSans-77" x="637.251953"/>
      </g>
     </g>
    </g>
    <g id="ytick_23">
     <g id="line2d_63">
      <path d="M 233.287688 186.683429 
L 1172.887688 186.683429 
" clip-path="url(#p8e2b7fcf3c)" style="fill: none; stroke: #cbcbcb"/>
     </g>
     <g id="line2d_64"/>
     <g id="text_33">
      <!-- Iframe -->
      <g transform="translate(184.143313 192.002335)scale(0.14 -0.14)">
       <use xlink:href="#DejaVuSans-49"/>
       <use xlink:href="#DejaVuSans-66" x="29.492188"/>
       <use xlink:href="#DejaVuSans-72" x="64.697266"/>
       <use xlink:href="#DejaVuSans-61" x="105.810547"/>
       <use xlink:href="#DejaVuSans-6d" x="167.089844"/>
       <use xlink:href="#DejaVuSans-65" x="264.501953"/>
      </g>
     </g>
    </g>
    <g id="ytick_24">
     <g id="line2d_65">
      <path d="M 233.287688 168.892092 
L 1172.887688 168.892092 
" clip-path="url(#p8e2b7fcf3c)" style="fill: none; stroke: #cbcbcb"/>
     </g>
     <g id="line2d_66"/>
     <g id="text_34">
      <!-- age_of_domain -->
      <g transform="translate(123.77925 174.210999)scale(0.14 -0.14)">
       <use xlink:href="#DejaVuSans-61"/>
       <use xlink:href="#DejaVuSans-67" x="61.279297"/>
       <use xlink:href="#DejaVuSans-65" x="124.755859"/>
       <use xlink:href="#DejaVuSans-5f" x="186.279297"/>
       <use xlink:href="#DejaVuSans-6f" x="236.279297"/>
       <use xlink:href="#DejaVuSans-66" x="297.460938"/>
       <use xlink:href="#DejaVuSans-5f" x="332.666016"/>
       <use xlink:href="#DejaVuSans-64" x="382.666016"/>
       <use xlink:href="#DejaVuSans-6f" x="446.142578"/>
       <use xlink:href="#DejaVuSans-6d" x="507.324219"/>
       <use xlink:href="#DejaVuSans-61" x="604.736328"/>
       <use xlink:href="#DejaVuSans-69" x="666.015625"/>
       <use xlink:href="#DejaVuSans-6e" x="693.798828"/>
      </g>
     </g>
    </g>
    <g id="ytick_25">
     <g id="line2d_67">
      <path d="M 233.287688 151.100756 
L 1172.887688 151.100756 
" clip-path="url(#p8e2b7fcf3c)" style="fill: none; stroke: #cbcbcb"/>
     </g>
     <g id="line2d_68"/>
     <g id="text_35">
      <!-- DNSRecord -->
      <g transform="translate(151.27175 156.419663)scale(0.14 -0.14)">
       <defs>
        <path id="DejaVuSans-4e" d="M 628 4666 
L 1478 4666 
L 3547 763 
L 3547 4666 
L 4159 4666 
L 4159 0 
L 3309 0 
L 1241 3903 
L 1241 0 
L 628 0 
L 628 4666 
z
" transform="scale(0.015625)"/>
       </defs>
       <use xlink:href="#DejaVuSans-44"/>
       <use xlink:href="#DejaVuSans-4e" x="77.001953"/>
       <use xlink:href="#DejaVuSans-53" x="151.806641"/>
       <use xlink:href="#DejaVuSans-52" x="215.283203"/>
       <use xlink:href="#DejaVuSans-65" x="280.265625"/>
       <use xlink:href="#DejaVuSans-63" x="341.789062"/>
       <use xlink:href="#DejaVuSans-6f" x="396.769531"/>
       <use xlink:href="#DejaVuSans-72" x="457.951172"/>
       <use xlink:href="#DejaVuSans-64" x="497.314453"/>
      </g>
     </g>
    </g>
    <g id="ytick_26">
     <g id="line2d_69">
      <path d="M 233.287688 133.30942 
L 1172.887688 133.30942 
" clip-path="url(#p8e2b7fcf3c)" style="fill: none; stroke: #cbcbcb"/>
     </g>
     <g id="line2d_70"/>
     <g id="text_36">
      <!-- web_traffic -->
      <g transform="translate(152.568938 138.628326)scale(0.14 -0.14)">
       <use xlink:href="#DejaVuSans-77"/>
       <use xlink:href="#DejaVuSans-65" x="81.787109"/>
       <use xlink:href="#DejaVuSans-62" x="143.310547"/>
       <use xlink:href="#DejaVuSans-5f" x="206.787109"/>
       <use xlink:href="#DejaVuSans-74" x="256.787109"/>
       <use xlink:href="#DejaVuSans-72" x="295.996094"/>
       <use xlink:href="#DejaVuSans-61" x="337.109375"/>
       <use xlink:href="#DejaVuSans-66" x="398.388672"/>
       <use xlink:href="#DejaVuSans-66" x="433.59375"/>
       <use xlink:href="#DejaVuSans-69" x="468.798828"/>
       <use xlink:href="#DejaVuSans-63" x="496.582031"/>
      </g>
     </g>
    </g>
    <g id="ytick_27">
     <g id="line2d_71">
      <path d="M 233.287688 115.518084 
L 1172.887688 115.518084 
" clip-path="url(#p8e2b7fcf3c)" style="fill: none; stroke: #cbcbcb"/>
     </g>
     <g id="line2d_72"/>
     <g id="text_37">
      <!-- Page_Rank -->
      <g transform="translate(153.923 120.83699)scale(0.14 -0.14)">
       <use xlink:href="#DejaVuSans-50"/>
       <use xlink:href="#DejaVuSans-61" x="55.802734"/>
       <use xlink:href="#DejaVuSans-67" x="117.082031"/>
       <use xlink:href="#DejaVuSans-65" x="180.558594"/>
       <use xlink:href="#DejaVuSans-5f" x="242.082031"/>
       <use xlink:href="#DejaVuSans-52" x="292.082031"/>
       <use xlink:href="#DejaVuSans-61" x="359.314453"/>
       <use xlink:href="#DejaVuSans-6e" x="420.59375"/>
       <use xlink:href="#DejaVuSans-6b" x="483.972656"/>
      </g>
     </g>
    </g>
    <g id="ytick_28">
     <g id="line2d_73">
      <path d="M 233.287688 97.726748 
L 1172.887688 97.726748 
" clip-path="url(#p8e2b7fcf3c)" style="fill: none; stroke: #cbcbcb"/>
     </g>
     <g id="line2d_74"/>
     <g id="text_38">
      <!-- Google_Index -->
      <g transform="translate(134.869875 103.045654)scale(0.14 -0.14)">
       <defs>
        <path id="DejaVuSans-47" d="M 3809 666 
L 3809 1919 
L 2778 1919 
L 2778 2438 
L 4434 2438 
L 4434 434 
Q 4069 175 3628 42 
Q 3188 -91 2688 -91 
Q 1594 -91 976 548 
Q 359 1188 359 2328 
Q 359 3472 976 4111 
Q 1594 4750 2688 4750 
Q 3144 4750 3555 4637 
Q 3966 4525 4313 4306 
L 4313 3634 
Q 3963 3931 3569 4081 
Q 3175 4231 2741 4231 
Q 1884 4231 1454 3753 
Q 1025 3275 1025 2328 
Q 1025 1384 1454 906 
Q 1884 428 2741 428 
Q 3075 428 3337 486 
Q 3600 544 3809 666 
z
" transform="scale(0.015625)"/>
       </defs>
       <use xlink:href="#DejaVuSans-47"/>
       <use xlink:href="#DejaVuSans-6f" x="77.490234"/>
       <use xlink:href="#DejaVuSans-6f" x="138.671875"/>
       <use xlink:href="#DejaVuSans-67" x="199.853516"/>
       <use xlink:href="#DejaVuSans-6c" x="263.330078"/>
       <use xlink:href="#DejaVuSans-65" x="291.113281"/>
       <use xlink:href="#DejaVuSans-5f" x="352.636719"/>
       <use xlink:href="#DejaVuSans-49" x="402.636719"/>
       <use xlink:href="#DejaVuSans-6e" x="432.128906"/>
       <use xlink:href="#DejaVuSans-64" x="495.507812"/>
       <use xlink:href="#DejaVuSans-65" x="558.984375"/>
       <use xlink:href="#DejaVuSans-78" x="618.757812"/>
      </g>
     </g>
    </g>
    <g id="ytick_29">
     <g id="line2d_75">
      <path d="M 233.287688 79.935412 
L 1172.887688 79.935412 
" clip-path="url(#p8e2b7fcf3c)" style="fill: none; stroke: #cbcbcb"/>
     </g>
     <g id="line2d_76"/>
     <g id="text_39">
      <!-- Links_pointing_to_page -->
      <g transform="translate(66.447062 85.254318)scale(0.14 -0.14)">
       <use xlink:href="#DejaVuSans-4c"/>
       <use xlink:href="#DejaVuSans-69" x="55.712891"/>
       <use xlink:href="#DejaVuSans-6e" x="83.496094"/>
       <use xlink:href="#DejaVuSans-6b" x="146.875"/>
       <use xlink:href="#DejaVuSans-73" x="204.785156"/>
       <use xlink:href="#DejaVuSans-5f" x="256.884766"/>
       <use xlink:href="#DejaVuSans-70" x="306.884766"/>
       <use xlink:href="#DejaVuSans-6f" x="370.361328"/>
       <use xlink:href="#DejaVuSans-69" x="431.542969"/>
       <use xlink:href="#DejaVuSans-6e" x="459.326172"/>
       <use xlink:href="#DejaVuSans-74" x="522.705078"/>
       <use xlink:href="#DejaVuSans-69" x="561.914062"/>
       <use xlink:href="#DejaVuSans-6e" x="589.697266"/>
       <use xlink:href="#DejaVuSans-67" x="653.076172"/>
       <use xlink:href="#DejaVuSans-5f" x="716.552734"/>
       <use xlink:href="#DejaVuSans-74" x="766.552734"/>
       <use xlink:href="#DejaVuSans-6f" x="805.761719"/>
       <use xlink:href="#DejaVuSans-5f" x="866.943359"/>
       <use xlink:href="#DejaVuSans-70" x="916.943359"/>
       <use xlink:href="#DejaVuSans-61" x="980.419922"/>
       <use xlink:href="#DejaVuSans-67" x="1041.699219"/>
       <use xlink:href="#DejaVuSans-65" x="1105.175781"/>
      </g>
     </g>
    </g>
    <g id="ytick_30">
     <g id="line2d_77">
      <path d="M 233.287688 62.144075 
L 1172.887688 62.144075 
" clip-path="url(#p8e2b7fcf3c)" style="fill: none; stroke: #cbcbcb"/>
     </g>
     <g id="line2d_78"/>
     <g id="text_40">
      <!-- Statistical_report -->
      <g transform="translate(110.86425 67.462982)scale(0.14 -0.14)">
       <use xlink:href="#DejaVuSans-53"/>
       <use xlink:href="#DejaVuSans-74" x="63.476562"/>
       <use xlink:href="#DejaVuSans-61" x="102.685547"/>
       <use xlink:href="#DejaVuSans-74" x="163.964844"/>
       <use xlink:href="#DejaVuSans-69" x="203.173828"/>
       <use xlink:href="#DejaVuSans-73" x="230.957031"/>
       <use xlink:href="#DejaVuSans-74" x="283.056641"/>
       <use xlink:href="#DejaVuSans-69" x="322.265625"/>
       <use xlink:href="#DejaVuSans-63" x="350.048828"/>
       <use xlink:href="#DejaVuSans-61" x="405.029297"/>
       <use xlink:href="#DejaVuSans-6c" x="466.308594"/>
       <use xlink:href="#DejaVuSans-5f" x="494.091797"/>
       <use xlink:href="#DejaVuSans-72" x="544.091797"/>
       <use xlink:href="#DejaVuSans-65" x="582.955078"/>
       <use xlink:href="#DejaVuSans-70" x="644.478516"/>
       <use xlink:href="#DejaVuSans-6f" x="707.955078"/>
       <use xlink:href="#DejaVuSans-72" x="769.136719"/>
       <use xlink:href="#DejaVuSans-74" x="810.25"/>
      </g>
     </g>
    </g>
    <g id="text_41">
     <!-- Feature -->
     <g transform="translate(19.965375 351.853387)rotate(-90)scale(0.168 -0.168)">
      <use xlink:href="#DejaVuSans-46"/>
      <use xlink:href="#DejaVuSans-65" x="52.019531"/>
      <use xlink:href="#DejaVuSans-61" x="113.542969"/>
      <use xlink:href="#DejaVuSans-74" x="174.822266"/>
      <use xlink:href="#DejaVuSans-75" x="214.03125"/>
      <use xlink:href="#DejaVuSans-72" x="277.410156"/>
      <use xlink:href="#DejaVuSans-65" x="316.273438"/>
     </g>
    </g>
   </g>
   <g id="patch_3">
    <path d="M 233.287688 585.209359 
L 238.336313 585.209359 
L 238.336313 570.97629 
L 233.287688 570.97629 
z
" clip-path="url(#p8e2b7fcf3c)" style="fill: #008fd5"/>
   </g>
   <g id="patch_4">
    <path d="M 233.287688 567.418023 
L 235.133722 567.418023 
L 235.133722 553.184954 
L 233.287688 553.184954 
z
" clip-path="url(#p8e2b7fcf3c)" style="fill: #008fd5"/>
   </g>
   <g id="patch_5">
    <path d="M 233.287688 549.626687 
L 237.026619 549.626687 
L 237.026619 535.393618 
L 233.287688 535.393618 
z
" clip-path="url(#p8e2b7fcf3c)" style="fill: #008fd5"/>
   </g>
   <g id="patch_6">
    <path d="M 233.287688 531.835351 
L 234.827203 531.835351 
L 234.827203 517.602282 
L 233.287688 517.602282 
z
" clip-path="url(#p8e2b7fcf3c)" style="fill: #008fd5"/>
   </g>
   <g id="patch_7">
    <path d="M 233.287688 514.044014 
L 234.179259 514.044014 
L 234.179259 499.810945 
L 233.287688 499.810945 
z
" clip-path="url(#p8e2b7fcf3c)" style="fill: #008fd5"/>
   </g>
   <g id="patch_8">
    <path d="M 233.287688 496.252678 
L 331.859915 496.252678 
L 331.859915 482.019609 
L 233.287688 482.019609 
z
" clip-path="url(#p8e2b7fcf3c)" style="fill: #008fd5"/>
   </g>
   <g id="patch_9">
    <path d="M 233.287688 478.461342 
L 381.317571 478.461342 
L 381.317571 464.228273 
L 233.287688 464.228273 
z
" clip-path="url(#p8e2b7fcf3c)" style="fill: #008fd5"/>
   </g>
   <g id="patch_10">
    <path d="M 233.287688 460.670006 
L 1128.14483 460.670006 
L 1128.14483 446.436937 
L 233.287688 446.436937 
z
" clip-path="url(#p8e2b7fcf3c)" style="fill: #008fd5"/>
   </g>
   <g id="patch_11">
    <path d="M 233.287688 442.87867 
L 266.750889 442.87867 
L 266.750889 428.645601 
L 233.287688 428.645601 
z
" clip-path="url(#p8e2b7fcf3c)" style="fill: #008fd5"/>
   </g>
   <g id="patch_12">
    <path d="M 233.287688 425.087333 
L 235.784268 425.087333 
L 235.784268 410.854265 
L 233.287688 410.854265 
z
" clip-path="url(#p8e2b7fcf3c)" style="fill: #008fd5"/>
   </g>
   <g id="patch_13">
    <path d="M 233.287688 407.295997 
L 234.443909 407.295997 
L 234.443909 393.062928 
L 233.287688 393.062928 
z
" clip-path="url(#p8e2b7fcf3c)" style="fill: #008fd5"/>
   </g>
   <g id="patch_14">
    <path d="M 233.287688 389.504661 
L 234.885637 389.504661 
L 234.885637 375.271592 
L 233.287688 375.271592 
z
" clip-path="url(#p8e2b7fcf3c)" style="fill: #008fd5"/>
   </g>
   <g id="patch_15">
    <path d="M 233.287688 371.713325 
L 260.270496 371.713325 
L 260.270496 357.480256 
L 233.287688 357.480256 
z
" clip-path="url(#p8e2b7fcf3c)" style="fill: #008fd5"/>
   </g>
   <g id="patch_16">
    <path d="M 233.287688 353.921989 
L 945.884991 353.921989 
L 945.884991 339.68892 
L 233.287688 339.68892 
z
" clip-path="url(#p8e2b7fcf3c)" style="fill: #008fd5"/>
   </g>
   <g id="patch_17">
    <path d="M 233.287688 336.130653 
L 291.767849 336.130653 
L 291.767849 321.897584 
L 233.287688 321.897584 
z
" clip-path="url(#p8e2b7fcf3c)" style="fill: #008fd5"/>
   </g>
   <g id="patch_18">
    <path d="M 233.287688 318.339316 
L 265.735773 318.339316 
L 265.735773 304.106247 
L 233.287688 304.106247 
z
" clip-path="url(#p8e2b7fcf3c)" style="fill: #008fd5"/>
   </g>
   <g id="patch_19">
    <path d="M 233.287688 300.54798 
L 234.321835 300.54798 
L 234.321835 286.314911 
L 233.287688 286.314911 
z
" clip-path="url(#p8e2b7fcf3c)" style="fill: #008fd5"/>
   </g>
   <g id="patch_20">
    <path d="M 233.287688 282.756644 
L 236.047887 282.756644 
L 236.047887 268.523575 
L 233.287688 268.523575 
z
" clip-path="url(#p8e2b7fcf3c)" style="fill: #008fd5"/>
   </g>
   <g id="patch_21">
    <path d="M 233.287688 264.965308 
L 233.968211 264.965308 
L 233.968211 250.732239 
L 233.287688 250.732239 
z
" clip-path="url(#p8e2b7fcf3c)" style="fill: #008fd5"/>
   </g>
   <g id="patch_22">
    <path d="M 233.287688 247.173972 
L 234.754124 247.173972 
L 234.754124 232.940903 
L 233.287688 232.940903 
z
" clip-path="url(#p8e2b7fcf3c)" style="fill: #008fd5"/>
   </g>
   <g id="patch_23">
    <path d="M 233.287688 229.382635 
L 233.95563 229.382635 
L 233.95563 215.149567 
L 233.287688 215.149567 
z
" clip-path="url(#p8e2b7fcf3c)" style="fill: #008fd5"/>
   </g>
   <g id="patch_24">
    <path d="M 233.287688 211.591299 
L 235.103787 211.591299 
L 235.103787 197.35823 
L 233.287688 197.35823 
z
" clip-path="url(#p8e2b7fcf3c)" style="fill: #008fd5"/>
   </g>
   <g id="patch_25">
    <path d="M 233.287688 193.799963 
L 234.030519 193.799963 
L 234.030519 179.566894 
L 233.287688 179.566894 
z
" clip-path="url(#p8e2b7fcf3c)" style="fill: #008fd5"/>
   </g>
   <g id="patch_26">
    <path d="M 233.287688 176.008627 
L 239.895461 176.008627 
L 239.895461 161.775558 
L 233.287688 161.775558 
z
" clip-path="url(#p8e2b7fcf3c)" style="fill: #008fd5"/>
   </g>
   <g id="patch_27">
    <path d="M 233.287688 158.217291 
L 239.266131 158.217291 
L 239.266131 143.984222 
L 233.287688 143.984222 
z
" clip-path="url(#p8e2b7fcf3c)" style="fill: #008fd5"/>
   </g>
   <g id="patch_28">
    <path d="M 233.287688 140.425955 
L 384.132616 140.425955 
L 384.132616 126.192886 
L 233.287688 126.192886 
z
" clip-path="url(#p8e2b7fcf3c)" style="fill: #008fd5"/>
   </g>
   <g id="patch_29">
    <path d="M 233.287688 122.634618 
L 237.316497 122.634618 
L 237.316497 108.401549 
L 233.287688 108.401549 
z
" clip-path="url(#p8e2b7fcf3c)" style="fill: #008fd5"/>
   </g>
   <g id="patch_30">
    <path d="M 233.287688 104.843282 
L 246.510238 104.843282 
L 246.510238 90.610213 
L 233.287688 90.610213 
z
" clip-path="url(#p8e2b7fcf3c)" style="fill: #008fd5"/>
   </g>
   <g id="patch_31">
    <path d="M 233.287688 87.051946 
L 236.551501 87.051946 
L 236.551501 72.818877 
L 233.287688 72.818877 
z
" clip-path="url(#p8e2b7fcf3c)" style="fill: #008fd5"/>
   </g>
   <g id="patch_32">
    <path d="M 233.287688 69.26061 
L 234.778636 69.26061 
L 234.778636 55.027541 
L 233.287688 55.027541 
z
" clip-path="url(#p8e2b7fcf3c)" style="fill: #008fd5"/>
   </g>
   <g id="patch_33">
    <path d="M 233.287688 611.71845 
L 233.287688 28.51845 
" style="fill: none; stroke: #f0f0f0; stroke-width: 3; stroke-linejoin: miter; stroke-linecap: square"/>
   </g>
   <g id="patch_34">
    <path d="M 1172.887688 611.71845 
L 1172.887688 28.51845 
" style="fill: none; stroke: #f0f0f0; stroke-width: 3; stroke-linejoin: miter; stroke-linecap: square"/>
   </g>
   <g id="patch_35">
    <path d="M 233.287688 611.71845 
L 1172.887688 611.71845 
" style="fill: none; stroke: #f0f0f0; stroke-width: 3; stroke-linejoin: miter; stroke-linecap: square"/>
   </g>
   <g id="patch_36">
    <path d="M 233.287688 28.51845 
L 1172.887688 28.51845 
" style="fill: none; stroke: #f0f0f0; stroke-width: 3; stroke-linejoin: miter; stroke-linecap: square"/>
   </g>
   <g id="text_42">
    <!-- Random Forest Feature Importance -->
    <g transform="translate(524.980388 22.51845)scale(0.2016 -0.2016)">
     <use xlink:href="#DejaVuSans-52"/>
     <use xlink:href="#DejaVuSans-61" x="67.232422"/>
     <use xlink:href="#DejaVuSans-6e" x="128.511719"/>
     <use xlink:href="#DejaVuSans-64" x="191.890625"/>
     <use xlink:href="#DejaVuSans-6f" x="255.367188"/>
     <use xlink:href="#DejaVuSans-6d" x="316.548828"/>
     <use xlink:href="#DejaVuSans-20" x="413.960938"/>
     <use xlink:href="#DejaVuSans-46" x="445.748047"/>
     <use xlink:href="#DejaVuSans-6f" x="499.642578"/>
     <use xlink:href="#DejaVuSans-72" x="560.824219"/>
     <use xlink:href="#DejaVuSans-65" x="599.6875"/>
     <use xlink:href="#DejaVuSans-73" x="661.210938"/>
     <use xlink:href="#DejaVuSans-74" x="713.310547"/>
     <use xlink:href="#DejaVuSans-20" x="752.519531"/>
     <use xlink:href="#DejaVuSans-46" x="784.306641"/>
     <use xlink:href="#DejaVuSans-65" x="836.326172"/>
     <use xlink:href="#DejaVuSans-61" x="897.849609"/>
     <use xlink:href="#DejaVuSans-74" x="959.128906"/>
     <use xlink:href="#DejaVuSans-75" x="998.337891"/>
     <use xlink:href="#DejaVuSans-72" x="1061.716797"/>
     <use xlink:href="#DejaVuSans-65" x="1100.580078"/>
     <use xlink:href="#DejaVuSans-20" x="1162.103516"/>
     <use xlink:href="#DejaVuSans-49" x="1193.890625"/>
     <use xlink:href="#DejaVuSans-6d" x="1223.382812"/>
     <use xlink:href="#DejaVuSans-70" x="1320.794922"/>
     <use xlink:href="#DejaVuSans-6f" x="1384.271484"/>
     <use xlink:href="#DejaVuSans-72" x="1445.453125"/>
     <use xlink:href="#DejaVuSans-74" x="1486.566406"/>
     <use xlink:href="#DejaVuSans-61" x="1525.775391"/>
     <use xlink:href="#DejaVuSans-6e" x="1587.054688"/>
     <use xlink:href="#DejaVuSans-63" x="1650.433594"/>
     <use xlink:href="#DejaVuSans-65" x="1705.414062"/>
    </g>
   </g>
  </g>
 </g>
 <defs>
  <clipPath id="p8e2b7fcf3c">
   <rect x="233.287688" y="28.51845" width="939.6" height="583.2"/>
  </clipPath>
 </defs>
</svg>
